<svg width="60" height="30" viewBox="0 0 60 30" fill="none" xmlns="http://www.w3.org/2000/svg">
<rect width="30" height="30" fill="#A8A8A8"/>
<rect x="30" width="30" height="30" fill="#CCCCCC"/>
<path d="M11.5917 6.62109V17.4578C11.5917 18.4797 11.9015 19.3115 12.5211 19.9531C13.1646 20.571 13.9987 20.88 15.0234 20.88C15.7621 20.88 16.4175 20.7493 16.9894 20.4879C17.5614 20.2264 18.038 19.8581 18.4193 19.3828V6.62109H24.2102V25.4785H18.4193V24.1952C17.7282 24.718 16.9418 25.122 16.06 25.4072C15.2021 25.6923 14.2965 25.8349 13.3433 25.8349C11.127 25.8349 9.31586 25.122 7.90983 23.6961C6.5038 22.2702 5.80078 20.4522 5.80078 18.2421V6.62109H11.5917Z" fill="white"/>
<path d="M35.8008 25.8349V6.97757H41.5917V8.26087C42.2828 7.73804 43.0573 7.33404 43.9152 7.04886C44.797 6.76368 45.7145 6.62109 46.6677 6.62109C48.884 6.62109 50.6952 7.33404 52.1012 8.75993C53.5072 10.1858 54.2102 12.0038 54.2102 14.2139V25.8349H48.4193V14.9982C48.4193 13.9763 48.0976 13.1564 47.4542 12.5385C46.8345 11.8969 46.0124 11.5761 44.9876 11.5761C44.2489 11.5761 43.5935 11.7068 43.0216 11.9682C42.4496 12.2296 41.973 12.5979 41.5917 13.0732V25.8349H35.8008Z" fill="white"/>
</svg>
