<svg width="23" height="23" viewBox="0 0 23 23" fill="none" xmlns="http://www.w3.org/2000/svg">
<g clip-path="url(#clip0)">
<path d="M20.8803 13.9659H21.0052V14.1517" stroke="white" stroke-width="0.1" stroke-miterlimit="1.5" stroke-linecap="round" stroke-linejoin="round"/>
<path d="M21.3739 14.4799H21.8472V13.8817H22.2799V14.5205L22.1782 14.6657H21.0023H19.7014" stroke="white" stroke-width="0.1" stroke-miterlimit="1.5" stroke-linecap="round" stroke-linejoin="round"/>
<path d="M14.1815 10.6127H14.9017" stroke="white" stroke-width="0.1" stroke-miterlimit="1.5" stroke-linecap="round" stroke-linejoin="round"/>
<path d="M14.1815 10.4218H14.9017" stroke="white" stroke-width="0.1" stroke-miterlimit="1.5" stroke-linecap="round" stroke-linejoin="round"/>
<path d="M14.1815 10.231H14.9017" stroke="white" stroke-width="0.1" stroke-miterlimit="1.5" stroke-linecap="round" stroke-linejoin="round"/>
<path d="M14.1815 10.0401H14.9017" stroke="white" stroke-width="0.1" stroke-miterlimit="1.5" stroke-linecap="round" stroke-linejoin="round"/>
<path d="M14.1815 10.8035H14.9017" stroke="white" stroke-width="0.1" stroke-miterlimit="1.5" stroke-linecap="round" stroke-linejoin="round"/>
<path d="M14.2019 11.9486H14.922" stroke="white" stroke-width="0.1" stroke-miterlimit="1.5" stroke-linecap="round" stroke-linejoin="round"/>
<path d="M14.2019 11.7578H14.922" stroke="white" stroke-width="0.1" stroke-miterlimit="1.5" stroke-linecap="round" stroke-linejoin="round"/>
<path d="M14.2019 11.567H14.922" stroke="white" stroke-width="0.1" stroke-miterlimit="1.5" stroke-linecap="round" stroke-linejoin="round"/>
<path d="M14.2019 11.3761H14.922" stroke="white" stroke-width="0.1" stroke-miterlimit="1.5" stroke-linecap="round" stroke-linejoin="round"/>
<path d="M14.2019 11.1853H14.922" stroke="white" stroke-width="0.1" stroke-miterlimit="1.5" stroke-linecap="round" stroke-linejoin="round"/>
<path d="M14.2019 10.9944H14.922" stroke="white" stroke-width="0.1" stroke-miterlimit="1.5" stroke-linecap="round" stroke-linejoin="round"/>
<path d="M14.2019 12.1424H14.922" stroke="white" stroke-width="0.1" stroke-miterlimit="1.5" stroke-linecap="round" stroke-linejoin="round"/>
<path d="M10.7784 12.1548H11.4986" stroke="white" stroke-width="0.1" stroke-miterlimit="1.5" stroke-linecap="round" stroke-linejoin="round"/>
<path d="M10.7784 11.964H11.4986" stroke="white" stroke-width="0.1" stroke-miterlimit="1.5" stroke-linecap="round" stroke-linejoin="round"/>
<path d="M10.7784 11.7731H11.4986" stroke="white" stroke-width="0.1" stroke-miterlimit="1.5" stroke-linecap="round" stroke-linejoin="round"/>
<path d="M10.7784 11.5823H11.4986" stroke="white" stroke-width="0.1" stroke-miterlimit="1.5" stroke-linecap="round" stroke-linejoin="round"/>
<path d="M10.7784 11.3914H11.4986" stroke="white" stroke-width="0.1" stroke-miterlimit="1.5" stroke-linecap="round" stroke-linejoin="round"/>
<path d="M10.7784 12.3486H11.4986" stroke="white" stroke-width="0.1" stroke-miterlimit="1.5" stroke-linecap="round" stroke-linejoin="round"/>
<path d="M9.3992 13.6415H10.1193" stroke="white" stroke-width="0.1" stroke-miterlimit="1.5" stroke-linecap="round" stroke-linejoin="round"/>
<path d="M9.3992 13.4478H10.1193" stroke="white" stroke-width="0.1" stroke-miterlimit="1.5" stroke-linecap="round" stroke-linejoin="round"/>
<path d="M9.3992 13.8324H10.1193" stroke="white" stroke-width="0.1" stroke-miterlimit="1.5" stroke-linecap="round" stroke-linejoin="round"/>
<path d="M12.9243 13.6415H13.6444" stroke="white" stroke-width="0.1" stroke-miterlimit="1.5" stroke-linecap="round" stroke-linejoin="round"/>
<path d="M12.9243 13.4478H13.6444" stroke="white" stroke-width="0.1" stroke-miterlimit="1.5" stroke-linecap="round" stroke-linejoin="round"/>
<path d="M12.9243 13.8324H13.6444" stroke="white" stroke-width="0.1" stroke-miterlimit="1.5" stroke-linecap="round" stroke-linejoin="round"/>
<path d="M10.4503 13.6415H11.1704" stroke="white" stroke-width="0.1" stroke-miterlimit="1.5" stroke-linecap="round" stroke-linejoin="round"/>
<path d="M10.4503 13.4478H11.1704" stroke="white" stroke-width="0.1" stroke-miterlimit="1.5" stroke-linecap="round" stroke-linejoin="round"/>
<path d="M10.4503 13.8324H11.1704" stroke="white" stroke-width="0.1" stroke-miterlimit="1.5" stroke-linecap="round" stroke-linejoin="round"/>
<path d="M13.9754 13.6415H14.6955" stroke="white" stroke-width="0.1" stroke-miterlimit="1.5" stroke-linecap="round" stroke-linejoin="round"/>
<path d="M13.9754 13.4478H14.6955" stroke="white" stroke-width="0.1" stroke-miterlimit="1.5" stroke-linecap="round" stroke-linejoin="round"/>
<path d="M13.9754 13.8324H14.6955" stroke="white" stroke-width="0.1" stroke-miterlimit="1.5" stroke-linecap="round" stroke-linejoin="round"/>
<path d="M11.5102 13.6415H12.2303" stroke="white" stroke-width="0.1" stroke-miterlimit="1.5" stroke-linecap="round" stroke-linejoin="round"/>
<path d="M11.5102 13.4478H12.2303" stroke="white" stroke-width="0.1" stroke-miterlimit="1.5" stroke-linecap="round" stroke-linejoin="round"/>
<path d="M11.5102 13.8324H12.2303" stroke="white" stroke-width="0.1" stroke-miterlimit="1.5" stroke-linecap="round" stroke-linejoin="round"/>
<path d="M15.0352 13.6415H15.7553" stroke="white" stroke-width="0.1" stroke-miterlimit="1.5" stroke-linecap="round" stroke-linejoin="round"/>
<path d="M15.0352 13.4478H15.7553" stroke="white" stroke-width="0.1" stroke-miterlimit="1.5" stroke-linecap="round" stroke-linejoin="round"/>
<path d="M15.0352 13.8324H15.7553" stroke="white" stroke-width="0.1" stroke-miterlimit="1.5" stroke-linecap="round" stroke-linejoin="round"/>
<path d="M12.5119 12.1548H13.232" stroke="white" stroke-width="0.1" stroke-miterlimit="1.5" stroke-linecap="round" stroke-linejoin="round"/>
<path d="M12.5119 11.964H13.232" stroke="white" stroke-width="0.1" stroke-miterlimit="1.5" stroke-linecap="round" stroke-linejoin="round"/>
<path d="M12.5119 11.7731H13.232" stroke="white" stroke-width="0.1" stroke-miterlimit="1.5" stroke-linecap="round" stroke-linejoin="round"/>
<path d="M12.5119 11.5823H13.232" stroke="white" stroke-width="0.1" stroke-miterlimit="1.5" stroke-linecap="round" stroke-linejoin="round"/>
<path d="M12.5119 11.3914H13.232" stroke="white" stroke-width="0.1" stroke-miterlimit="1.5" stroke-linecap="round" stroke-linejoin="round"/>
<path d="M12.5119 12.3486H13.232" stroke="white" stroke-width="0.1" stroke-miterlimit="1.5" stroke-linecap="round" stroke-linejoin="round"/>
<path d="M10.8626 10.671H11.5828" stroke="white" stroke-width="0.1" stroke-miterlimit="1.5" stroke-linecap="round" stroke-linejoin="round"/>
<path d="M10.8626 10.4802H11.5828" stroke="white" stroke-width="0.1" stroke-miterlimit="1.5" stroke-linecap="round" stroke-linejoin="round"/>
<path d="M10.8626 10.2893H11.5828" stroke="white" stroke-width="0.1" stroke-miterlimit="1.5" stroke-linecap="round" stroke-linejoin="round"/>
<path d="M10.8626 10.0985H11.5828" stroke="white" stroke-width="0.1" stroke-miterlimit="1.5" stroke-linecap="round" stroke-linejoin="round"/>
<path d="M10.8626 10.8619H11.5828" stroke="white" stroke-width="0.1" stroke-miterlimit="1.5" stroke-linecap="round" stroke-linejoin="round"/>
<path d="M16.2199 10.6127H16.94" stroke="white" stroke-width="0.1" stroke-miterlimit="1.5" stroke-linecap="round" stroke-linejoin="round"/>
<path d="M16.2199 10.4218H16.94" stroke="white" stroke-width="0.1" stroke-miterlimit="1.5" stroke-linecap="round" stroke-linejoin="round"/>
<path d="M16.2199 10.231H16.94" stroke="white" stroke-width="0.1" stroke-miterlimit="1.5" stroke-linecap="round" stroke-linejoin="round"/>
<path d="M16.2199 10.0401H16.94" stroke="white" stroke-width="0.1" stroke-miterlimit="1.5" stroke-linecap="round" stroke-linejoin="round"/>
<path d="M16.2199 10.8035H16.94" stroke="white" stroke-width="0.1" stroke-miterlimit="1.5" stroke-linecap="round" stroke-linejoin="round"/>
<path d="M16.2402 11.9486H16.9603" stroke="white" stroke-width="0.1" stroke-miterlimit="1.5" stroke-linecap="round" stroke-linejoin="round"/>
<path d="M16.2402 11.7578H16.9603" stroke="white" stroke-width="0.1" stroke-miterlimit="1.5" stroke-linecap="round" stroke-linejoin="round"/>
<path d="M16.2402 11.567H16.9603" stroke="white" stroke-width="0.1" stroke-miterlimit="1.5" stroke-linecap="round" stroke-linejoin="round"/>
<path d="M16.2402 11.3761H16.9603" stroke="white" stroke-width="0.1" stroke-miterlimit="1.5" stroke-linecap="round" stroke-linejoin="round"/>
<path d="M16.2402 11.1853H16.9603" stroke="white" stroke-width="0.1" stroke-miterlimit="1.5" stroke-linecap="round" stroke-linejoin="round"/>
<path d="M16.2402 10.9944H16.9603" stroke="white" stroke-width="0.1" stroke-miterlimit="1.5" stroke-linecap="round" stroke-linejoin="round"/>
<path d="M16.2402 12.1424H16.9603" stroke="white" stroke-width="0.1" stroke-miterlimit="1.5" stroke-linecap="round" stroke-linejoin="round"/>
<path d="M17.4772 10.6127H18.1973" stroke="white" stroke-width="0.1" stroke-miterlimit="1.5" stroke-linecap="round" stroke-linejoin="round"/>
<path d="M17.4772 10.4218H18.1973" stroke="white" stroke-width="0.1" stroke-miterlimit="1.5" stroke-linecap="round" stroke-linejoin="round"/>
<path d="M17.4772 10.231H18.1973" stroke="white" stroke-width="0.1" stroke-miterlimit="1.5" stroke-linecap="round" stroke-linejoin="round"/>
<path d="M17.4772 10.0401H18.1973" stroke="white" stroke-width="0.1" stroke-miterlimit="1.5" stroke-linecap="round" stroke-linejoin="round"/>
<path d="M17.4772 10.8035H18.1973" stroke="white" stroke-width="0.1" stroke-miterlimit="1.5" stroke-linecap="round" stroke-linejoin="round"/>
<path d="M17.4975 11.9486H18.2176" stroke="white" stroke-width="0.1" stroke-miterlimit="1.5" stroke-linecap="round" stroke-linejoin="round"/>
<path d="M17.4975 11.7578H18.2176" stroke="white" stroke-width="0.1" stroke-miterlimit="1.5" stroke-linecap="round" stroke-linejoin="round"/>
<path d="M17.4975 11.567H18.2176" stroke="white" stroke-width="0.1" stroke-miterlimit="1.5" stroke-linecap="round" stroke-linejoin="round"/>
<path d="M17.4975 11.3761H18.2176" stroke="white" stroke-width="0.1" stroke-miterlimit="1.5" stroke-linecap="round" stroke-linejoin="round"/>
<path d="M17.4975 11.1853H18.2176" stroke="white" stroke-width="0.1" stroke-miterlimit="1.5" stroke-linecap="round" stroke-linejoin="round"/>
<path d="M17.4975 10.9944H18.2176" stroke="white" stroke-width="0.1" stroke-miterlimit="1.5" stroke-linecap="round" stroke-linejoin="round"/>
<path d="M17.4975 12.1424H18.2176" stroke="white" stroke-width="0.1" stroke-miterlimit="1.5" stroke-linecap="round" stroke-linejoin="round"/>
<path d="M15.3485 11.9486H15.8686" stroke="white" stroke-width="0.1" stroke-miterlimit="1.5" stroke-linecap="round" stroke-linejoin="round"/>
<path d="M15.3485 11.7578H15.8686" stroke="white" stroke-width="0.1" stroke-miterlimit="1.5" stroke-linecap="round" stroke-linejoin="round"/>
<path d="M15.3485 11.567H15.8686" stroke="white" stroke-width="0.1" stroke-miterlimit="1.5" stroke-linecap="round" stroke-linejoin="round"/>
<path d="M15.3485 11.3761H15.8686" stroke="white" stroke-width="0.1" stroke-miterlimit="1.5" stroke-linecap="round" stroke-linejoin="round"/>
<path d="M15.3485 11.1853H15.8686" stroke="white" stroke-width="0.1" stroke-miterlimit="1.5" stroke-linecap="round" stroke-linejoin="round"/>
<path d="M15.3485 12.1424H15.8686" stroke="white" stroke-width="0.1" stroke-miterlimit="1.5" stroke-linecap="round" stroke-linejoin="round"/>
<path d="M4.77629 14.6045H5.41278C5.49453 14.7476 5.53833 14.9081 5.53833 15.0746C5.53833 15.5914 5.11789 16.0118 4.6011 16.0118C4.08432 16.0118 3.66388 15.5914 3.66388 15.0746C3.66388 14.9111 3.70768 14.7476 3.78943 14.6045H4.42592V15.0162H4.77629V14.6045Z" fill="white" stroke="white" stroke-width="0.1" stroke-miterlimit="1.5" stroke-linejoin="round"/>
<path d="M4.60086 15.1913C4.69708 15.1913 4.77508 15.1133 4.77508 15.017C4.77508 14.9208 4.69708 14.8428 4.60086 14.8428C4.50464 14.8428 4.42664 14.9208 4.42664 15.017C4.42664 15.1133 4.50464 15.1913 4.60086 15.1913Z" stroke="white" stroke-width="0.1" stroke-miterlimit="1.5" stroke-linejoin="round"/>
<path d="M4.60233 14.8399V15.1913" stroke="white" stroke-width="0.1" stroke-miterlimit="1.5" stroke-linejoin="round"/>
<path d="M15.0411 14.6045H15.6776C15.7593 14.7476 15.8031 14.9081 15.8031 15.0746C15.8031 15.5914 15.3827 16.0118 14.8659 16.0118C14.3491 16.0118 13.9287 15.5914 13.9287 15.0746C13.9287 14.9111 13.9725 14.7476 14.0542 14.6045H14.6907V15.0162H15.0411V14.6045Z" fill="white" stroke="white" stroke-width="0.1" stroke-miterlimit="1.5" stroke-linejoin="round"/>
<path d="M14.8654 15.1913C14.9616 15.1913 15.0396 15.1133 15.0396 15.017C15.0396 14.9208 14.9616 14.8428 14.8654 14.8428C14.7691 14.8428 14.6911 14.9208 14.6911 15.017C14.6911 15.1133 14.7691 15.1913 14.8654 15.1913Z" stroke="white" stroke-width="0.1" stroke-miterlimit="1.5" stroke-linejoin="round"/>
<path d="M14.8668 14.8399V15.1913" stroke="white" stroke-width="0.1" stroke-miterlimit="1.5" stroke-linejoin="round"/>
<path d="M8.97139 14.6045H9.60788C9.68964 14.7476 9.73343 14.9081 9.73343 15.0746C9.73343 15.5914 9.31299 16.0118 8.79621 16.0118C8.27942 16.0118 7.85898 15.5914 7.85898 15.0746C7.85898 14.9111 7.90278 14.7476 7.98453 14.6045H8.62102V15.0162H8.97139V14.6045Z" fill="white" stroke="white" stroke-width="0.1" stroke-miterlimit="1.5" stroke-linejoin="round"/>
<path d="M8.79669 15.1913C8.89291 15.1913 8.97091 15.1133 8.97091 15.017C8.97091 14.9208 8.89291 14.8428 8.79669 14.8428C8.70047 14.8428 8.62247 14.9208 8.62247 15.017C8.62247 15.1133 8.70047 15.1913 8.79669 15.1913Z" stroke="white" stroke-width="0.1" stroke-miterlimit="1.5" stroke-linejoin="round"/>
<path d="M8.79523 14.8399V15.1913" stroke="white" stroke-width="0.1" stroke-miterlimit="1.5" stroke-linejoin="round"/>
<path d="M19.0913 14.6045H19.7278C19.8096 14.7476 19.8534 14.9081 19.8534 15.0746C19.8534 15.5914 19.4329 16.0118 18.9161 16.0118C18.3994 16.0118 17.9789 15.5914 17.9789 15.0746C17.9789 14.9111 18.0227 14.7476 18.1045 14.6045H18.741V15.0162H19.0913V14.6045Z" fill="white" stroke="white" stroke-width="0.1" stroke-miterlimit="1.5" stroke-linejoin="round"/>
<path d="M18.916 15.1913C19.0122 15.1913 19.0902 15.1133 19.0902 15.017C19.0902 14.9208 19.0122 14.8428 18.916 14.8428C18.8198 14.8428 18.7418 14.9208 18.7418 15.017C18.7418 15.1133 18.8198 15.1913 18.916 15.1913Z" stroke="white" stroke-width="0.1" stroke-miterlimit="1.5" stroke-linejoin="round"/>
<path d="M18.9145 14.8399V15.1913" stroke="white" stroke-width="0.1" stroke-miterlimit="1.5" stroke-linejoin="round"/>
<path d="M22.3206 13.6552H22.4657" stroke="white" stroke-width="0.1" stroke-miterlimit="1.5" stroke-linejoin="round"/>
<path d="M13.3134 14.0472H10.7784V15.3655H13.3134V14.0472Z" stroke="white" stroke-width="0.1" stroke-miterlimit="1.5" stroke-linejoin="round"/>
<path d="M10.5523 14.2127L2.80386 14.0995V14.6047H10.7726L10.5523 14.2127Z" stroke="white" stroke-width="0.1" stroke-miterlimit="1.5" stroke-linejoin="round"/>
<path d="M21.3504 14.2127H13.6019L13.3134 14.6047H21.3504V14.2127Z" stroke="white" stroke-width="0.1" stroke-miterlimit="1.5" stroke-linejoin="round"/>
<path d="M22.7125 13.902C22.8713 13.902 23 13.6901 23 13.4287C23 13.1673 22.8713 12.9554 22.7125 12.9554C22.5538 12.9554 22.4251 13.1673 22.4251 13.4287C22.4251 13.6901 22.5538 13.902 22.7125 13.902Z" fill="white" stroke="white" stroke-width="0.1" stroke-miterlimit="1.5" stroke-linejoin="round"/>
<path d="M22.3206 13.1819H22.4657" stroke="white" stroke-width="0.1" stroke-miterlimit="1.5" stroke-linejoin="round"/>
<path d="M21.6207 13.4491H21.3739V13.7365H21.6207V13.4491Z" stroke="white" stroke-width="0.1" stroke-miterlimit="1.5" stroke-linejoin="round"/>
<path d="M21.0023 13.8817H22.1347" stroke="white" stroke-width="0.1" stroke-miterlimit="1.5" stroke-linejoin="round"/>
<path d="M20.1573 12.7493L22.3844 12.9351L22.3234 12.9961V13.8817H22.1376V12.9961H20.076" stroke="white" stroke-width="0.1" stroke-miterlimit="1.5" stroke-linejoin="round"/>
<path d="M7.09076 13.6349C7.09076 13.6349 7.09076 13.5536 7.15174 13.5536H7.2766V13.6349H7.09076Z" stroke="white" stroke-width="0.1" stroke-miterlimit="1.5" stroke-linejoin="round"/>
<path d="M7.33759 13.5536H7.62505V13.6349H7.33759V13.5536Z" stroke="white" stroke-width="0.1" stroke-miterlimit="1.5" stroke-linejoin="round"/>
<path d="M0.452972 13.5129H0.569119V13.8643H0.452972" fill="white"/>
<path d="M0.452972 13.5129H0.569119V13.8643H0.452972" stroke="white" stroke-width="0.1" stroke-miterlimit="1.5" stroke-linejoin="round"/>
<path d="M0.226488 14.2534C0.351573 14.2534 0.452974 13.9908 0.452974 13.6668C0.452974 13.3429 0.351573 13.0803 0.226488 13.0803C0.101403 13.0803 0 13.3429 0 13.6668C0 13.9908 0.101403 14.2534 0.226488 14.2534Z" fill="white" stroke="white" stroke-width="0.1" stroke-miterlimit="1.5" stroke-linejoin="round"/>
<path d="M1.15275 13.4287H0.595247C0.560403 13.6001 0.554596 13.7656 0.595247 13.9224H1.15275" fill="white"/>
<path d="M1.15275 13.4287H0.595247C0.560403 13.6001 0.554596 13.7656 0.595247 13.9224H1.15275" stroke="white" stroke-width="0.1" stroke-miterlimit="1.5" stroke-linejoin="round"/>
<path d="M1.42279 13.1413H0.949493L1.13533 13.3678V14.0879H1.42279V13.1413Z" fill="white" stroke="white" stroke-width="0.1" stroke-miterlimit="1.5" stroke-linejoin="round"/>
<path d="M2.63943 12.8741L1.42279 13.1413V14.0908V13.1413H3.50472" stroke="white" stroke-width="0.1" stroke-miterlimit="1.5" stroke-linejoin="round"/>
<path d="M18.6938 9.67719H20.0121V10.4409" stroke="white" stroke-width="0.1" stroke-miterlimit="1.5" stroke-linejoin="round"/>
<path d="M7.83121 13.2429V14.0472H16.0747" stroke="white" stroke-width="0.1" stroke-miterlimit="1.5" stroke-linecap="round" stroke-linejoin="round"/>
<path d="M19.5795 10.2202C19.5795 10.1737 19.5621 10.1331 19.5301 10.1011C19.4982 10.0692 19.4546 10.0518 19.4111 10.0518C19.3065 10.0518 19.1759 10.0518 19.0713 10.0518C19.0278 10.0518 18.9842 10.0692 18.9523 10.1011C18.9203 10.1331 18.9029 10.1766 18.9029 10.2202C18.9029 10.2521 18.9029 10.2782 18.9029 10.2782H19.5824V10.2202H19.5795Z" stroke="white" stroke-width="0.1" stroke-miterlimit="1.5" stroke-linecap="round" stroke-linejoin="round"/>
<path d="M19.5795 11.1058C19.5795 11.0593 19.5621 11.0187 19.5301 10.9867C19.4982 10.9548 19.4546 10.9374 19.4111 10.9374C19.3065 10.9374 19.1759 10.9374 19.0713 10.9374C19.0278 10.9374 18.9842 10.9548 18.9523 10.9867C18.9203 11.0187 18.9029 11.0622 18.9029 11.1058C18.9029 11.1377 18.9029 11.1639 18.9029 11.1639H19.5824V11.1058H19.5795Z" stroke="white" stroke-width="0.1" stroke-miterlimit="1.5" stroke-linecap="round" stroke-linejoin="round"/>
<path d="M19.5795 11.9914C19.5795 11.945 19.5621 11.9043 19.5301 11.8724C19.4982 11.8404 19.4546 11.823 19.4111 11.823C19.3065 11.823 19.1759 11.823 19.0713 11.823C19.0278 11.823 18.9842 11.8404 18.9523 11.8724C18.9203 11.9043 18.9029 11.9479 18.9029 11.9914C18.9029 12.0234 18.9029 12.0495 18.9029 12.0495H19.5824V11.9914H19.5795Z" stroke="white" stroke-width="0.1" stroke-miterlimit="1.5" stroke-linecap="round" stroke-linejoin="round"/>
<path d="M16.0776 14.0472V13.1819H21.0023V13.8933H20.8571V13.3474H16.1996V14.0472H16.0776" stroke="white" stroke-width="0.1" stroke-miterlimit="1.5" stroke-linecap="round" stroke-linejoin="round"/>
<path d="M18.6735 10.647V12.5025" stroke="white" stroke-width="0.1" stroke-miterlimit="1.5" stroke-linecap="round" stroke-linejoin="round"/>
<path d="M16.5916 10.647V12.5025" stroke="white" stroke-width="0.1" stroke-miterlimit="1.5" stroke-linecap="round" stroke-linejoin="round"/>
<path d="M12.4074 9.67719V11.0884" stroke="white" stroke-width="0.1" stroke-miterlimit="1.5" stroke-linecap="round" stroke-linejoin="round"/>
<path d="M3.07208 10.1171H3.56571" stroke="white" stroke-width="0.1" stroke-miterlimit="1.5" stroke-linecap="round" stroke-linejoin="round"/>
<path d="M3.07208 10.0169H3.56571" stroke="white" stroke-width="0.1" stroke-miterlimit="1.5" stroke-linecap="round" stroke-linejoin="round"/>
<path d="M3.07208 9.91965H3.56571" stroke="white" stroke-width="0.1" stroke-miterlimit="1.5" stroke-linecap="round" stroke-linejoin="round"/>
<path d="M3.07208 9.82237H3.56571" stroke="white" stroke-width="0.1" stroke-miterlimit="1.5" stroke-linecap="round" stroke-linejoin="round"/>
<path d="M3.07208 10.2144H3.56571" stroke="white" stroke-width="0.1" stroke-miterlimit="1.5" stroke-linecap="round" stroke-linejoin="round"/>
<path d="M3.58603 12.4618H4.26549V13.3271" stroke="white" stroke-width="0.1" stroke-miterlimit="1.5" stroke-linecap="round" stroke-linejoin="round"/>
<path d="M5.79282 11.9653H9.95669" stroke="white" stroke-width="0.1" stroke-miterlimit="1.5" stroke-linecap="round" stroke-linejoin="round"/>
<path d="M19.806 12.5025H13.8912V11.1435H10.1193V7.84497H5.93512" stroke="white" stroke-width="0.1" stroke-miterlimit="1.5" stroke-linecap="round" stroke-linejoin="round"/>
<path d="M7.83121 13.2429H2.63654V14.0879H2.80204V13.4694H7.83121" stroke="white" stroke-width="0.1" stroke-miterlimit="1.5" stroke-linecap="round" stroke-linejoin="round"/>
<path fill-rule="evenodd" clip-rule="evenodd" d="M2.63943 9.69171V12.9961H20.137V9.73816C20.137 9.6075 20.0847 9.48264 19.9918 9.38972C19.8989 9.29681 19.774 9.24454 19.6433 9.24454H10.7784V7.42974C10.7784 7.3978 10.7668 7.36586 10.7436 7.34263C10.7204 7.3194 10.6884 7.30779 10.6565 7.30779V7H10.43V7.30779H10.2848V7.14228H5.58666V7.67946C5.58666 7.7927 5.67958 7.88562 5.79282 7.88562V9.24454H3.0866C2.96755 9.24454 2.85431 9.291 2.7701 9.3752C2.68589 9.45941 2.63943 9.57266 2.63943 9.69171ZM7.09077 8.00758H8.82136V9.86302H7.09077V8.00758Z" fill="white"/>
<path d="M2.63943 12.9961H2.58943C2.58943 13.0237 2.61182 13.0461 2.63943 13.0461V12.9961ZM20.137 12.9961V13.0461C20.1646 13.0461 20.187 13.0237 20.187 12.9961H20.137ZM10.7784 9.24454H10.7284C10.7284 9.27215 10.7508 9.29454 10.7784 9.29454V9.24454ZM10.6565 7.30779H10.6065C10.6065 7.3354 10.6289 7.35779 10.6565 7.35779V7.30779ZM10.6565 7H10.7065C10.7065 6.97239 10.6841 6.95 10.6565 6.95V7ZM10.43 7V6.95C10.4024 6.95 10.38 6.97239 10.38 7H10.43ZM10.43 7.30779V7.35779C10.4576 7.35779 10.48 7.3354 10.48 7.30779H10.43ZM10.2848 7.30779H10.2348C10.2348 7.3354 10.2572 7.35779 10.2848 7.35779V7.30779ZM10.2848 7.14228H10.3348C10.3348 7.11467 10.3124 7.09228 10.2848 7.09228V7.14228ZM5.58666 7.14228V7.09228C5.55905 7.09228 5.53666 7.11467 5.53666 7.14228H5.58666ZM5.79282 7.88562H5.84282C5.84282 7.85801 5.82044 7.83562 5.79282 7.83562V7.88562ZM5.79282 9.24454V9.29454C5.82044 9.29454 5.84282 9.27215 5.84282 9.24454H5.79282ZM2.7701 9.3752L2.80546 9.41056L2.80546 9.41056L2.7701 9.3752ZM8.82136 8.00758H8.87136C8.87136 7.97996 8.84898 7.95758 8.82136 7.95758V8.00758ZM7.09077 8.00758V7.95758C7.06316 7.95758 7.04077 7.97996 7.04077 8.00758H7.09077ZM8.82136 9.86302V9.91302C8.84898 9.91302 8.87136 9.89064 8.87136 9.86302H8.82136ZM7.09077 9.86302H7.04077C7.04077 9.89064 7.06316 9.91302 7.09077 9.91302V9.86302ZM2.68943 12.9961V9.69171H2.58943V12.9961H2.68943ZM20.137 12.9461H2.63943V13.0461H20.137V12.9461ZM20.087 9.73816V12.9961H20.187V9.73816H20.087ZM19.9564 9.42508C20.0401 9.50875 20.087 9.62094 20.087 9.73816H20.187C20.187 9.59406 20.1293 9.45653 20.0271 9.35437L19.9564 9.42508ZM19.6433 9.29454C19.7606 9.29454 19.8728 9.34141 19.9564 9.42508L20.0271 9.35437C19.925 9.2522 19.7875 9.19454 19.6433 9.19454V9.29454ZM10.7784 9.29454H19.6433V9.19454H10.7784V9.29454ZM10.7284 7.42974V9.24454H10.8284V7.42974H10.7284ZM10.7082 7.37799C10.7211 7.39081 10.7284 7.40954 10.7284 7.42974H10.8284C10.8284 7.38607 10.8126 7.34091 10.7789 7.30728L10.7082 7.37799ZM10.6565 7.35779C10.6767 7.35779 10.6954 7.36516 10.7082 7.37799L10.7789 7.30728C10.7453 7.27364 10.7002 7.25779 10.6565 7.25779V7.35779ZM10.6065 7V7.30779H10.7065V7H10.6065ZM10.43 7.05H10.6565V6.95H10.43V7.05ZM10.48 7.30779V7H10.38V7.30779H10.48ZM10.2848 7.35779H10.43V7.25779H10.2848V7.35779ZM10.2348 7.14228V7.30779H10.3348V7.14228H10.2348ZM5.58666 7.19228H10.2848V7.09228H5.58666V7.19228ZM5.63666 7.67946V7.14228H5.53666V7.67946H5.63666ZM5.79282 7.83562C5.70719 7.83562 5.63666 7.76509 5.63666 7.67946H5.53666C5.53666 7.82032 5.65197 7.93562 5.79282 7.93562V7.83562ZM5.84282 9.24454V7.88562H5.74282V9.24454H5.84282ZM3.0866 9.29454H5.79282V9.19454H3.0866V9.29454ZM2.80546 9.41056C2.8802 9.33582 2.98068 9.29454 3.0866 9.29454V9.19454C2.95442 9.19454 2.82842 9.24618 2.73474 9.33985L2.80546 9.41056ZM2.68943 9.69171C2.68943 9.58579 2.73072 9.4853 2.80546 9.41056L2.73474 9.33985C2.64107 9.43352 2.58943 9.55952 2.58943 9.69171H2.68943ZM8.82136 7.95758H7.09077V8.05758H8.82136V7.95758ZM8.87136 9.86302V8.00758H8.77136V9.86302H8.87136ZM7.09077 9.91302H8.82136V9.81302H7.09077V9.91302ZM7.04077 8.00758V9.86302H7.14077V8.00758H7.04077Z" fill="white"/>
<path d="M1.42279 14.0879H2.63943" stroke="white" stroke-width="0.1" stroke-miterlimit="1.5" stroke-linejoin="round"/>
<path d="M17.1085 13.6668C17.1085 13.6146 17.0678 13.5739 17.0155 13.5739C16.9429 13.5739 16.8413 13.5739 16.7687 13.5739C16.7165 13.5739 16.6758 13.6146 16.6758 13.6668C16.6758 13.7191 16.7165 13.7597 16.7687 13.7597C16.8413 13.7597 16.9429 13.7597 17.0155 13.7597C17.0649 13.7597 17.1085 13.7162 17.1085 13.6668Z" stroke="white" stroke-width="0.1" stroke-miterlimit="1.5" stroke-linejoin="round"/>
<path d="M8.42938 13.2429H15.8483" stroke="white" stroke-width="0.1" stroke-miterlimit="1.5" stroke-linejoin="round"/>
<path d="M10.1396 9.67719H14.0973C14.2019 9.67719 14.3006 9.71784 14.3732 9.79043C14.4458 9.86302 14.4864 9.96175 14.4864 10.0663C14.4864 10.8416 14.4864 12.4996 14.4864 12.4996" stroke="white" stroke-width="0.1" stroke-miterlimit="1.5" stroke-linecap="round" stroke-linejoin="round"/>
<path d="M5.79284 10.3799H5.72896C5.64766 10.3799 5.56926 10.4118 5.51119 10.4699C5.45311 10.528 5.42117 10.6064 5.42117 10.6877C5.42117 10.7138 5.42117 10.7312 5.42117 10.7312H5.79284V10.3799V10.3799Z" stroke="white" stroke-width="0.1" stroke-miterlimit="1.5" stroke-linecap="round" stroke-linejoin="round"/>
<path d="M5.11047 9.86303C5.11047 9.82818 5.08143 9.80205 5.04949 9.80205C4.97109 9.80205 4.83752 9.80205 4.76203 9.80205C4.72718 9.80205 4.70105 9.83109 4.70105 9.86303C4.70105 9.89497 4.73009 9.924 4.76203 9.924C4.84043 9.924 4.974 9.924 5.04949 9.924C5.08433 9.924 5.11047 9.89787 5.11047 9.86303Z" stroke="white" stroke-width="0.1" stroke-miterlimit="1.5" stroke-linecap="round" stroke-linejoin="round"/>
<path d="M4.2655 11.8433H5.78993V9.38972" stroke="white" stroke-width="0.1" stroke-miterlimit="1.5" stroke-linecap="round" stroke-linejoin="round"/>
<path d="M5.58667 7.4733H10.43" stroke="white" stroke-width="0.1" stroke-miterlimit="1.5" stroke-linecap="round" stroke-linejoin="round"/>
<path d="M2.86594 13.1209V11.1523C2.86594 11.0129 2.92111 10.8822 3.01693 10.7835C3.26084 10.5338 3.74575 10.043 4.00708 9.77881C4.12032 9.66267 4.27712 9.59879 4.43973 9.59879C4.88689 9.59879 5.77252 9.59879 5.77252 9.59879H4.4949V11.8259" stroke="white" stroke-width="0.1" stroke-miterlimit="1.5" stroke-linecap="round" stroke-linejoin="round"/>
<path d="M1.4375 13.1587L2.64091 12.8852V13.0148H20.1411V12.7557L22.316 12.9572V13.2019H22.4609V13.6625H22.316V13.8785H22.2725V14.5118L22.171 14.6414L13.3121 14.627V15.3611H10.7748V14.627H2.8004L2.7859 14.2959V14.0944H1.4375V13.1587Z" fill="white"/>
<path d="M4.3125 15.2264V14.521L5.01305 14.4198L5.01103 14.4035L5.1165 14.4048L10.3082 13.6541L19.3164 14.4329V15.2264L18.5888 15.1823L18.6615 14.4329H15.198L15.2998 15.1382H14.5285L14.5577 14.4329L9.21678 14.4035L9.07126 15.1823L8.43093 15.1235L8.59101 14.4476L5.1165 14.4048L5.01305 14.4198L5.1129 15.2264H4.3125Z" fill="white"/>
</g>
<defs>
<clipPath id="clip0">
<rect width="23" height="23" fill="white"/>
</clipPath>
</defs>
</svg>
