<svg width="23" height="23" viewBox="0 0 23 23" fill="none" xmlns="http://www.w3.org/2000/svg">
<g clip-path="url(#clip0)">
<path d="M14.6437 14.1764V14.0726H17.4858V14.1764V14.3714L16.231 14.7749H15.9641L14.6827 14.3067L14.6437 14.1764Z" fill="white"/>
<path d="M14.6437 14.1764V14.0726H17.4858M14.6437 14.1764L15.9313 14.3386M14.6437 14.1764L14.6827 14.3067L15.9641 14.7749H16.231L17.4858 14.3714V14.0726M16.1849 14.3058V14.3386L17.4858 14.1764V14.0726" stroke="white" stroke-width="0.1" stroke-miterlimit="10"/>
<path d="M4.56464 14.1764V14.0726H7.40674V14.1764V14.3714L6.15196 14.7749H5.88504L4.60365 14.3067L4.56464 14.1764Z" fill="white"/>
<path d="M4.56464 14.1764V14.0726H7.40674M4.56464 14.1764L5.85223 14.3386M4.56464 14.1764L4.60365 14.3067L5.88504 14.7749H6.15196L7.40674 14.3714V14.0726M6.10585 14.3058V14.3386L7.40674 14.1764V14.0726" stroke="white" stroke-width="0.1" stroke-miterlimit="10"/>
<path d="M15.0064 14.4255L15.9641 14.7758H16.231L17.0929 14.4991C17.155 14.6428 17.1869 14.798 17.1869 14.9549C17.1869 15.5916 16.6699 16.1095 16.0324 16.1095C15.3948 16.1095 14.8778 15.5925 14.8778 14.9549C14.8778 14.7696 14.9221 14.5887 15.0064 14.4255Z" fill="white" stroke="white" stroke-width="0.1" stroke-miterlimit="10"/>
<path d="M4.92735 14.4255L5.88506 14.7758H6.15198L7.01392 14.4991C7.076 14.6428 7.10792 14.798 7.10792 14.9549C7.10792 15.5916 6.59093 16.1095 5.95334 16.1095C5.31576 16.1095 4.79877 15.5908 4.79877 14.9541C4.79877 14.7696 4.84311 14.5887 4.92735 14.4255Z" fill="white" stroke="white" stroke-width="0.1" stroke-miterlimit="10"/>
<path d="M15.1864 14.4912L15.9641 14.7749H16.231L16.9191 14.5541C16.9759 14.6792 17.0051 14.8157 17.0051 14.9541C17.0051 15.4906 16.5697 15.926 16.0332 15.926C15.4967 15.926 15.0613 15.4906 15.0613 14.9541C15.0613 14.7927 15.1012 14.633 15.1784 14.4912H15.1864Z" stroke="white" stroke-width="0.1" stroke-miterlimit="10"/>
<path d="M5.10736 14.4912L5.88506 14.7749H6.15198L6.84012 14.5541C6.89687 14.6792 6.92614 14.8157 6.92614 14.9541C6.92614 15.4906 6.49073 15.926 5.95423 15.926C5.41774 15.926 4.98233 15.4906 4.98233 14.9541C4.98233 14.7927 5.02224 14.633 5.09938 14.4912H5.10736Z" stroke="white" stroke-width="0.1" stroke-miterlimit="10"/>
<path d="M16.3995 14.7752H15.8337V15.5429H16.3995V14.7752Z" stroke="white" stroke-width="0.1" stroke-miterlimit="10"/>
<path d="M6.32046 14.7752H5.7547V15.5429H6.32046V14.7752Z" stroke="white" stroke-width="0.1" stroke-miterlimit="10"/>
<path d="M6.16436 15.2086H5.95331V15.5429H6.16436V15.2086Z" stroke="white" stroke-width="0.1" stroke-miterlimit="10"/>
<path d="M16.2217 15.2086H16.0106V15.5429H16.2217V15.2086Z" stroke="white" stroke-width="0.1" stroke-miterlimit="10"/>
<path d="M19.9954 13.5264H21.5561V14.1764H19.9954V13.5264L21.5561 13.6239H22.5901C22.5466 13.7924 22.5439 13.9387 22.5838 14.0726H21.5561" fill="white"/>
<path d="M19.9954 13.5264H21.5561V14.1764H19.9954V13.5264ZM19.9954 13.5264L21.5561 13.6239H22.5901C22.5466 13.7924 22.5439 13.9387 22.5838 14.0726H21.5561" stroke="white" stroke-width="0.1" stroke-miterlimit="10"/>
<path d="M22.7785 14.3076C22.9008 14.3076 23 14.1051 23 13.8553C23 13.6056 22.9008 13.4031 22.7785 13.4031C22.6562 13.4031 22.557 13.6056 22.557 13.8553C22.557 14.1051 22.6562 14.3076 22.7785 14.3076Z" fill="white" stroke="white" stroke-width="0.1" stroke-miterlimit="10"/>
<path d="M19.9821 11.4522C20.0645 11.4522 20.1319 11.5196 20.1319 11.6021C20.1319 11.931 20.1319 12.7158 20.1319 13.0457C20.1319 13.1282 20.0645 13.1956 19.9821 13.1956" stroke="white" stroke-width="0.1" stroke-miterlimit="10"/>
<path d="M1.23569 14.0726H19.7284Z" fill="white" stroke="white" stroke-width="0.1" stroke-miterlimit="10"/>
<path d="M21.0684 8.81938H20.2552" stroke="white" stroke-width="0.1" stroke-miterlimit="10"/>
<path d="M8.52496 8.76085H10.0334V13.098" stroke="white" stroke-width="0.1" stroke-miterlimit="10"/>
<path d="M11.7249 8.76085H10.2165V13.098" stroke="white" stroke-width="0.1" stroke-miterlimit="10"/>
<path d="M8.52495 8.76085L8.36267 8.93022V13.098" stroke="white" stroke-width="0.1" stroke-miterlimit="10"/>
<path d="M11.7249 8.76085L11.8871 8.93022V13.098" stroke="white" stroke-width="0.1" stroke-miterlimit="10"/>
<path d="M6.06061 8.59148H7.7907V8.65621H8.02481L8.16758 8.81849V13.2275" stroke="white" stroke-width="0.1" stroke-miterlimit="10"/>
<path d="M14.3705 8.57196H12.6405V8.6367H12.4063L12.2636 8.79897V13.208" stroke="white" stroke-width="0.1" stroke-miterlimit="10"/>
<path d="M14.3705 8.57196V9.27428" stroke="white" stroke-width="0.1" stroke-miterlimit="10"/>
<path d="M12.0951 13.4882H12.3682C12.3682 13.4882 12.55 13.4882 12.55 13.3747C12.55 13.2612 12.2574 13.2089 12.0951 13.2089V13.4882Z" stroke="white" stroke-width="0.1" stroke-miterlimit="10"/>
<path d="M14.3448 9.43657H12.3682" stroke="white" stroke-width="0.1" stroke-miterlimit="10"/>
<path d="M17.3688 9.61389C17.359 9.61389 17.3511 9.60594 17.3511 9.59615C17.3511 9.58635 17.359 9.57841 17.3688 9.57841C17.3786 9.57841 17.3865 9.58635 17.3865 9.59615C17.3865 9.60594 17.3786 9.61389 17.3688 9.61389Z" fill="white" stroke="white" stroke-width="0.1" stroke-miterlimit="10"/>
<path d="M17.3688 9.92616C17.359 9.92616 17.3511 9.91822 17.3511 9.90842C17.3511 9.89863 17.359 9.89069 17.3688 9.89069C17.3786 9.89069 17.3865 9.89863 17.3865 9.90842C17.3865 9.91822 17.3786 9.92616 17.3688 9.92616Z" fill="white" stroke="white" stroke-width="0.1" stroke-miterlimit="10"/>
<path d="M17.3688 13.6911C17.359 13.6911 17.3511 13.6832 17.3511 13.6734C17.3511 13.6636 17.359 13.6557 17.3688 13.6557C17.3786 13.6557 17.3865 13.6636 17.3865 13.6734C17.3865 13.6832 17.3786 13.6911 17.3688 13.6911Z" fill="white" stroke="white" stroke-width="0.1" stroke-miterlimit="10"/>
<path d="M17.3688 13.3744C17.359 13.3744 17.3511 13.3665 17.3511 13.3567C17.3511 13.3469 17.359 13.339 17.3688 13.339C17.3786 13.339 17.3865 13.3469 17.3865 13.3567C17.3865 13.3665 17.3786 13.3744 17.3688 13.3744Z" fill="white" stroke="white" stroke-width="0.1" stroke-miterlimit="10"/>
<path d="M17.3688 13.0622C17.359 13.0622 17.3511 13.0542 17.3511 13.0444C17.3511 13.0346 17.359 13.0267 17.3688 13.0267C17.3786 13.0267 17.3865 13.0346 17.3865 13.0444C17.3865 13.0542 17.3786 13.0622 17.3688 13.0622Z" fill="white" stroke="white" stroke-width="0.1" stroke-miterlimit="10"/>
<path d="M17.3688 12.7499C17.359 12.7499 17.3511 12.742 17.3511 12.7322C17.3511 12.7224 17.359 12.7144 17.3688 12.7144C17.3786 12.7144 17.3865 12.7224 17.3865 12.7322C17.3865 12.742 17.3786 12.7499 17.3688 12.7499Z" fill="white" stroke="white" stroke-width="0.1" stroke-miterlimit="10"/>
<path d="M17.3688 12.4332C17.359 12.4332 17.3511 12.4253 17.3511 12.4155C17.3511 12.4057 17.359 12.3977 17.3688 12.3977C17.3786 12.3977 17.3865 12.4057 17.3865 12.4155C17.3865 12.4253 17.3786 12.4332 17.3688 12.4332Z" fill="white" stroke="white" stroke-width="0.1" stroke-miterlimit="10"/>
<path d="M17.3688 12.1209C17.359 12.1209 17.3511 12.113 17.3511 12.1032C17.3511 12.0934 17.359 12.0855 17.3688 12.0855C17.3786 12.0855 17.3865 12.0934 17.3865 12.1032C17.3865 12.113 17.3786 12.1209 17.3688 12.1209Z" fill="white" stroke="white" stroke-width="0.1" stroke-miterlimit="10"/>
<path d="M17.3688 11.8086C17.359 11.8086 17.3511 11.8007 17.3511 11.7909C17.3511 11.7811 17.359 11.7732 17.3688 11.7732C17.3786 11.7732 17.3865 11.7811 17.3865 11.7909C17.3865 11.8007 17.3786 11.8086 17.3688 11.8086Z" fill="white" stroke="white" stroke-width="0.1" stroke-miterlimit="10"/>
<path d="M17.3688 11.4964C17.359 11.4964 17.3511 11.4884 17.3511 11.4786C17.3511 11.4688 17.359 11.4609 17.3688 11.4609C17.3786 11.4609 17.3865 11.4688 17.3865 11.4786C17.3865 11.4884 17.3786 11.4964 17.3688 11.4964Z" fill="white" stroke="white" stroke-width="0.1" stroke-miterlimit="10"/>
<path d="M17.3688 11.1797C17.359 11.1797 17.3511 11.1717 17.3511 11.1619C17.3511 11.1522 17.359 11.1442 17.3688 11.1442C17.3786 11.1442 17.3865 11.1522 17.3865 11.1619C17.3865 11.1717 17.3786 11.1797 17.3688 11.1797Z" fill="white" stroke="white" stroke-width="0.1" stroke-miterlimit="10"/>
<path d="M17.3688 10.8674C17.359 10.8674 17.3511 10.8595 17.3511 10.8497C17.3511 10.8399 17.359 10.8319 17.3688 10.8319C17.3786 10.8319 17.3865 10.8399 17.3865 10.8497C17.3865 10.8595 17.3786 10.8674 17.3688 10.8674Z" fill="white" stroke="white" stroke-width="0.1" stroke-miterlimit="10"/>
<path d="M17.3688 10.5552C17.359 10.5552 17.3511 10.5472 17.3511 10.5374C17.3511 10.5276 17.359 10.5197 17.3688 10.5197C17.3786 10.5197 17.3865 10.5276 17.3865 10.5374C17.3865 10.5472 17.3786 10.5552 17.3688 10.5552Z" fill="white" stroke="white" stroke-width="0.1" stroke-miterlimit="10"/>
<path d="M17.3688 10.2429C17.359 10.2429 17.3511 10.2349 17.3511 10.2251C17.3511 10.2154 17.359 10.2074 17.3688 10.2074C17.3786 10.2074 17.3865 10.2154 17.3865 10.2251C17.3865 10.2349 17.3786 10.2429 17.3688 10.2429Z" fill="white" stroke="white" stroke-width="0.1" stroke-miterlimit="10"/>
<path d="M17.3688 14.0034C17.359 14.0034 17.3511 13.9955 17.3511 13.9857C17.3511 13.9759 17.359 13.968 17.3688 13.968C17.3786 13.968 17.3865 13.9759 17.3865 13.9857C17.3865 13.9955 17.3786 14.0034 17.3688 14.0034Z" fill="white" stroke="white" stroke-width="0.1" stroke-miterlimit="10"/>
<path d="M14.5132 9.61389C14.5034 9.61389 14.4955 9.60594 14.4955 9.59615C14.4955 9.58635 14.5034 9.57841 14.5132 9.57841C14.523 9.57841 14.5309 9.58635 14.5309 9.59615C14.5309 9.60594 14.523 9.61389 14.5132 9.61389Z" fill="white" stroke="white" stroke-width="0.1" stroke-miterlimit="10"/>
<path d="M14.5132 9.92616C14.5034 9.92616 14.4955 9.91822 14.4955 9.90842C14.4955 9.89863 14.5034 9.89069 14.5132 9.89069C14.523 9.89069 14.5309 9.89863 14.5309 9.90842C14.5309 9.91822 14.523 9.92616 14.5132 9.92616Z" fill="white" stroke="white" stroke-width="0.1" stroke-miterlimit="10"/>
<path d="M14.5132 13.6911C14.5034 13.6911 14.4955 13.6832 14.4955 13.6734C14.4955 13.6636 14.5034 13.6557 14.5132 13.6557C14.523 13.6557 14.5309 13.6636 14.5309 13.6734C14.5309 13.6832 14.523 13.6911 14.5132 13.6911Z" fill="white" stroke="white" stroke-width="0.1" stroke-miterlimit="10"/>
<path d="M14.5132 13.3744C14.5034 13.3744 14.4955 13.3665 14.4955 13.3567C14.4955 13.3469 14.5034 13.339 14.5132 13.339C14.523 13.339 14.5309 13.3469 14.5309 13.3567C14.5309 13.3665 14.523 13.3744 14.5132 13.3744Z" fill="white" stroke="white" stroke-width="0.1" stroke-miterlimit="10"/>
<path d="M14.5132 13.0622C14.5034 13.0622 14.4955 13.0542 14.4955 13.0444C14.4955 13.0346 14.5034 13.0267 14.5132 13.0267C14.523 13.0267 14.5309 13.0346 14.5309 13.0444C14.5309 13.0542 14.523 13.0622 14.5132 13.0622Z" fill="white" stroke="white" stroke-width="0.1" stroke-miterlimit="10"/>
<path d="M14.5132 12.7499C14.5034 12.7499 14.4955 12.742 14.4955 12.7322C14.4955 12.7224 14.5034 12.7144 14.5132 12.7144C14.523 12.7144 14.5309 12.7224 14.5309 12.7322C14.5309 12.742 14.523 12.7499 14.5132 12.7499Z" fill="white" stroke="white" stroke-width="0.1" stroke-miterlimit="10"/>
<path d="M14.5132 12.4332C14.5034 12.4332 14.4955 12.4253 14.4955 12.4155C14.4955 12.4057 14.5034 12.3977 14.5132 12.3977C14.523 12.3977 14.5309 12.4057 14.5309 12.4155C14.5309 12.4253 14.523 12.4332 14.5132 12.4332Z" fill="white" stroke="white" stroke-width="0.1" stroke-miterlimit="10"/>
<path d="M14.5132 12.1209C14.5034 12.1209 14.4955 12.113 14.4955 12.1032C14.4955 12.0934 14.5034 12.0855 14.5132 12.0855C14.523 12.0855 14.5309 12.0934 14.5309 12.1032C14.5309 12.113 14.523 12.1209 14.5132 12.1209Z" fill="white" stroke="white" stroke-width="0.1" stroke-miterlimit="10"/>
<path d="M14.5132 11.8086C14.5034 11.8086 14.4955 11.8007 14.4955 11.7909C14.4955 11.7811 14.5034 11.7732 14.5132 11.7732C14.523 11.7732 14.5309 11.7811 14.5309 11.7909C14.5309 11.8007 14.523 11.8086 14.5132 11.8086Z" fill="white" stroke="white" stroke-width="0.1" stroke-miterlimit="10"/>
<path d="M14.5132 11.4964C14.5034 11.4964 14.4955 11.4884 14.4955 11.4786C14.4955 11.4688 14.5034 11.4609 14.5132 11.4609C14.523 11.4609 14.5309 11.4688 14.5309 11.4786C14.5309 11.4884 14.523 11.4964 14.5132 11.4964Z" fill="white" stroke="white" stroke-width="0.1" stroke-miterlimit="10"/>
<path d="M14.5132 11.1797C14.5034 11.1797 14.4955 11.1717 14.4955 11.1619C14.4955 11.1522 14.5034 11.1442 14.5132 11.1442C14.523 11.1442 14.5309 11.1522 14.5309 11.1619C14.5309 11.1717 14.523 11.1797 14.5132 11.1797Z" fill="white" stroke="white" stroke-width="0.1" stroke-miterlimit="10"/>
<path d="M14.5132 10.8674C14.5034 10.8674 14.4955 10.8595 14.4955 10.8497C14.4955 10.8399 14.5034 10.8319 14.5132 10.8319C14.523 10.8319 14.5309 10.8399 14.5309 10.8497C14.5309 10.8595 14.523 10.8674 14.5132 10.8674Z" fill="white" stroke="white" stroke-width="0.1" stroke-miterlimit="10"/>
<path d="M14.5132 10.5552C14.5034 10.5552 14.4955 10.5472 14.4955 10.5374C14.4955 10.5276 14.5034 10.5197 14.5132 10.5197C14.523 10.5197 14.5309 10.5276 14.5309 10.5374C14.5309 10.5472 14.523 10.5552 14.5132 10.5552Z" fill="white" stroke="white" stroke-width="0.1" stroke-miterlimit="10"/>
<path d="M14.5132 10.2429C14.5034 10.2429 14.4955 10.2349 14.4955 10.2251C14.4955 10.2154 14.5034 10.2074 14.5132 10.2074C14.523 10.2074 14.5309 10.2154 14.5309 10.2251C14.5309 10.2349 14.523 10.2429 14.5132 10.2429Z" fill="white" stroke="white" stroke-width="0.1" stroke-miterlimit="10"/>
<path d="M14.5132 14.0034C14.5034 14.0034 14.4955 13.9955 14.4955 13.9857C14.4955 13.9759 14.5034 13.968 14.5132 13.968C14.523 13.968 14.5309 13.9759 14.5309 13.9857C14.5309 13.9955 14.523 14.0034 14.5132 14.0034Z" fill="white" stroke="white" stroke-width="0.1" stroke-miterlimit="10"/>
<path d="M12.1544 9.60946C12.1446 9.60946 12.1367 9.60152 12.1367 9.59173C12.1367 9.58193 12.1446 9.57399 12.1544 9.57399C12.1642 9.57399 12.1721 9.58193 12.1721 9.59173C12.1721 9.60152 12.1642 9.60946 12.1544 9.60946Z" fill="white" stroke="white" stroke-width="0.1" stroke-miterlimit="10"/>
<path d="M12.1544 9.1705C12.1446 9.1705 12.1367 9.16256 12.1367 9.15276C12.1367 9.14297 12.1446 9.13503 12.1544 9.13503C12.1642 9.13503 12.1721 9.14297 12.1721 9.15276C12.1721 9.16256 12.1642 9.1705 12.1544 9.1705Z" fill="white" stroke="white" stroke-width="0.1" stroke-miterlimit="10"/>
<path d="M12.1544 8.736C12.1446 8.736 12.1367 8.72806 12.1367 8.71827C12.1367 8.70847 12.1446 8.70053 12.1544 8.70053C12.1642 8.70053 12.1721 8.70847 12.1721 8.71827C12.1721 8.72806 12.1642 8.736 12.1544 8.736Z" fill="white" stroke="white" stroke-width="0.1" stroke-miterlimit="10"/>
<path d="M12.3939 9.41436C12.3841 9.41436 12.3761 9.40642 12.3761 9.39663C12.3761 9.38683 12.3841 9.37889 12.3939 9.37889C12.4036 9.37889 12.4116 9.38683 12.4116 9.39663C12.4116 9.40642 12.4036 9.41436 12.3939 9.41436Z" fill="white" stroke="white" stroke-width="0.1" stroke-miterlimit="10"/>
<path d="M12.5863 9.41436C12.5765 9.41436 12.5686 9.40642 12.5686 9.39663C12.5686 9.38683 12.5765 9.37889 12.5863 9.37889C12.5961 9.37889 12.604 9.38683 12.604 9.39663C12.604 9.40642 12.5961 9.41436 12.5863 9.41436Z" fill="white" stroke="white" stroke-width="0.1" stroke-miterlimit="10"/>
<path d="M12.7788 9.41436C12.769 9.41436 12.761 9.40642 12.761 9.39663C12.761 9.38683 12.769 9.37889 12.7788 9.37889C12.7886 9.37889 12.7965 9.38683 12.7965 9.39663C12.7965 9.40642 12.7886 9.41436 12.7788 9.41436Z" fill="white" stroke="white" stroke-width="0.1" stroke-miterlimit="10"/>
<path d="M12.9712 9.41436C12.9614 9.41436 12.9535 9.40642 12.9535 9.39663C12.9535 9.38683 12.9614 9.37889 12.9712 9.37889C12.981 9.37889 12.989 9.38683 12.989 9.39663C12.989 9.40642 12.981 9.41436 12.9712 9.41436Z" fill="white" stroke="white" stroke-width="0.1" stroke-miterlimit="10"/>
<path d="M13.1681 9.41436C13.1583 9.41436 13.1504 9.40642 13.1504 9.39663C13.1504 9.38683 13.1583 9.37889 13.1681 9.37889C13.1779 9.37889 13.1859 9.38683 13.1859 9.39663C13.1859 9.40642 13.1779 9.41436 13.1681 9.41436Z" fill="white" stroke="white" stroke-width="0.1" stroke-miterlimit="10"/>
<path d="M13.3606 9.41436C13.3508 9.41436 13.3428 9.40642 13.3428 9.39663C13.3428 9.38683 13.3508 9.37889 13.3606 9.37889C13.3704 9.37889 13.3783 9.38683 13.3783 9.39663C13.3783 9.40642 13.3704 9.41436 13.3606 9.41436Z" fill="white" stroke="white" stroke-width="0.1" stroke-miterlimit="10"/>
<path d="M13.553 9.41436C13.5432 9.41436 13.5353 9.40642 13.5353 9.39663C13.5353 9.38683 13.5432 9.37889 13.553 9.37889C13.5628 9.37889 13.5708 9.38683 13.5708 9.39663C13.5708 9.40642 13.5628 9.41436 13.553 9.41436Z" fill="white" stroke="white" stroke-width="0.1" stroke-miterlimit="10"/>
<path d="M13.7452 9.41436C13.7354 9.41436 13.7275 9.40642 13.7275 9.39663C13.7275 9.38683 13.7354 9.37889 13.7452 9.37889C13.755 9.37889 13.763 9.38683 13.763 9.39663C13.763 9.40642 13.755 9.41436 13.7452 9.41436Z" fill="white" stroke="white" stroke-width="0.1" stroke-miterlimit="10"/>
<path d="M13.9377 9.41436C13.9279 9.41436 13.92 9.40642 13.92 9.39663C13.92 9.38683 13.9279 9.37889 13.9377 9.37889C13.9475 9.37889 13.9554 9.38683 13.9554 9.39663C13.9554 9.40642 13.9475 9.41436 13.9377 9.41436Z" fill="white" stroke="white" stroke-width="0.1" stroke-miterlimit="10"/>
<path d="M14.1302 9.41436C14.1204 9.41436 14.1124 9.40642 14.1124 9.39663C14.1124 9.38683 14.1204 9.37889 14.1302 9.37889C14.1399 9.37889 14.1479 9.38683 14.1479 9.39663C14.1479 9.40642 14.1399 9.41436 14.1302 9.41436Z" fill="white" stroke="white" stroke-width="0.1" stroke-miterlimit="10"/>
<path d="M14.3271 9.41436C14.3173 9.41436 14.3093 9.40642 14.3093 9.39663C14.3093 9.38683 14.3173 9.37889 14.3271 9.37889C14.3368 9.37889 14.3448 9.38683 14.3448 9.39663C14.3448 9.40642 14.3368 9.41436 14.3271 9.41436Z" fill="white" stroke="white" stroke-width="0.1" stroke-miterlimit="10"/>
<path d="M14.6172 9.41085H17.2444V8.57196H14.6172V9.41085Z" stroke="white" stroke-width="0.1" stroke-miterlimit="10"/>
<path d="M12.1544 9.92173C12.1446 9.92173 12.1367 9.91379 12.1367 9.90399C12.1367 9.8942 12.1446 9.88626 12.1544 9.88626C12.1642 9.88626 12.1721 9.8942 12.1721 9.90399C12.1721 9.91379 12.1642 9.92173 12.1544 9.92173Z" fill="white" stroke="white" stroke-width="0.1" stroke-miterlimit="10"/>
<path d="M12.2033 13.7665C12.1935 13.7665 12.1855 13.7586 12.1855 13.7488C12.1855 13.739 12.1935 13.731 12.2033 13.731C12.2131 13.731 12.221 13.739 12.221 13.7488C12.221 13.7586 12.2131 13.7665 12.2033 13.7665Z" fill="white" stroke="white" stroke-width="0.1" stroke-miterlimit="10"/>
<path d="M12.425 13.3966C12.4152 13.3966 12.4073 13.3887 12.4073 13.3789C12.4073 13.3691 12.4152 13.3611 12.425 13.3611C12.4348 13.3611 12.4428 13.3691 12.4428 13.3789C12.4428 13.3887 12.4348 13.3966 12.425 13.3966Z" fill="white" stroke="white" stroke-width="0.1" stroke-miterlimit="10"/>
<path d="M12.1544 13.0577C12.1446 13.0577 12.1367 13.0498 12.1367 13.04C12.1367 13.0302 12.1446 13.0223 12.1544 13.0223C12.1642 13.0223 12.1721 13.0302 12.1721 13.04C12.1721 13.0498 12.1642 13.0577 12.1544 13.0577Z" fill="white" stroke="white" stroke-width="0.1" stroke-miterlimit="10"/>
<path d="M12.1544 12.7411C12.1446 12.7411 12.1367 12.7331 12.1367 12.7233C12.1367 12.7135 12.1446 12.7056 12.1544 12.7056C12.1642 12.7056 12.1721 12.7135 12.1721 12.7233C12.1721 12.7331 12.1642 12.7411 12.1544 12.7411Z" fill="white" stroke="white" stroke-width="0.1" stroke-miterlimit="10"/>
<path d="M12.1544 12.4288C12.1446 12.4288 12.1367 12.4208 12.1367 12.411C12.1367 12.4012 12.1446 12.3933 12.1544 12.3933C12.1642 12.3933 12.1721 12.4012 12.1721 12.411C12.1721 12.4208 12.1642 12.4288 12.1544 12.4288Z" fill="white" stroke="white" stroke-width="0.1" stroke-miterlimit="10"/>
<path d="M12.1544 12.1165C12.1446 12.1165 12.1367 12.1085 12.1367 12.0987C12.1367 12.0889 12.1446 12.081 12.1544 12.081C12.1642 12.081 12.1721 12.0889 12.1721 12.0987C12.1721 12.1085 12.1642 12.1165 12.1544 12.1165Z" fill="white" stroke="white" stroke-width="0.1" stroke-miterlimit="10"/>
<path d="M12.1544 11.7998C12.1446 11.7998 12.1367 11.7918 12.1367 11.782C12.1367 11.7723 12.1446 11.7643 12.1544 11.7643C12.1642 11.7643 12.1721 11.7723 12.1721 11.782C12.1721 11.7918 12.1642 11.7998 12.1544 11.7998Z" fill="white" stroke="white" stroke-width="0.1" stroke-miterlimit="10"/>
<path d="M12.1544 11.4875C12.1446 11.4875 12.1367 11.4796 12.1367 11.4698C12.1367 11.46 12.1446 11.4521 12.1544 11.4521C12.1642 11.4521 12.1721 11.46 12.1721 11.4698C12.1721 11.4796 12.1642 11.4875 12.1544 11.4875Z" fill="white" stroke="white" stroke-width="0.1" stroke-miterlimit="10"/>
<path d="M12.1544 11.1753C12.1446 11.1753 12.1367 11.1673 12.1367 11.1575C12.1367 11.1477 12.1446 11.1398 12.1544 11.1398C12.1642 11.1398 12.1721 11.1477 12.1721 11.1575C12.1721 11.1673 12.1642 11.1753 12.1544 11.1753Z" fill="white" stroke="white" stroke-width="0.1" stroke-miterlimit="10"/>
<path d="M12.1544 10.863C12.1446 10.863 12.1367 10.855 12.1367 10.8452C12.1367 10.8355 12.1446 10.8275 12.1544 10.8275C12.1642 10.8275 12.1721 10.8355 12.1721 10.8452C12.1721 10.855 12.1642 10.863 12.1544 10.863Z" fill="white" stroke="white" stroke-width="0.1" stroke-miterlimit="10"/>
<path d="M12.1544 10.5463C12.1446 10.5463 12.1367 10.5383 12.1367 10.5285C12.1367 10.5187 12.1446 10.5108 12.1544 10.5108C12.1642 10.5108 12.1721 10.5187 12.1721 10.5285C12.1721 10.5383 12.1642 10.5463 12.1544 10.5463Z" fill="white" stroke="white" stroke-width="0.1" stroke-miterlimit="10"/>
<path d="M12.1544 10.234C12.1446 10.234 12.1367 10.2261 12.1367 10.2163C12.1367 10.2065 12.1446 10.1985 12.1544 10.1985C12.1642 10.1985 12.1721 10.2065 12.1721 10.2163C12.1721 10.2261 12.1642 10.234 12.1544 10.234Z" fill="white" stroke="white" stroke-width="0.1" stroke-miterlimit="10"/>
<path d="M12.2033 13.9945C12.1935 13.9945 12.1855 13.9866 12.1855 13.9768C12.1855 13.967 12.1935 13.9591 12.2033 13.9591C12.2131 13.9591 12.221 13.967 12.221 13.9768C12.221 13.9866 12.2131 13.9945 12.2033 13.9945Z" fill="white" stroke="white" stroke-width="0.1" stroke-miterlimit="10"/>
<path d="M19.7394 8.57817V9.43036H17.4867V8.57817H19.7394Z" stroke="white" stroke-width="0.1" stroke-miterlimit="10"/>
<path d="M19.5437 11.9491H17.6655" stroke="white" stroke-width="0.1" stroke-miterlimit="10"/>
<path d="M14.8878 11.9786H16.9826" stroke="white" stroke-width="0.1" stroke-miterlimit="10"/>
<path d="M19.5437 11.5086H17.6655" stroke="white" stroke-width="0.1" stroke-miterlimit="10"/>
<path d="M14.8878 11.5328H16.9826" stroke="white" stroke-width="0.1" stroke-miterlimit="10"/>
<path d="M19.5437 11.0691H17.6655" stroke="white" stroke-width="0.1" stroke-miterlimit="10"/>
<path d="M14.8878 11.0861H16.9826" stroke="white" stroke-width="0.1" stroke-miterlimit="10"/>
<path d="M19.5437 10.6287H17.6655" stroke="white" stroke-width="0.1" stroke-miterlimit="10"/>
<path d="M14.8878 10.6403H16.9826" stroke="white" stroke-width="0.1" stroke-miterlimit="10"/>
<path d="M19.5437 10.1891H17.6655" stroke="white" stroke-width="0.1" stroke-miterlimit="10"/>
<path d="M14.8878 10.1945H16.9826" stroke="white" stroke-width="0.1" stroke-miterlimit="10"/>
<path d="M19.5437 9.7487H17.6655" stroke="white" stroke-width="0.1" stroke-miterlimit="10"/>
<path d="M14.8878 9.7487H16.9826" stroke="white" stroke-width="0.1" stroke-miterlimit="10"/>
<path d="M19.5437 12.3886H17.6655" stroke="white" stroke-width="0.1" stroke-miterlimit="10"/>
<path d="M19.5352 12.8701H17.657" stroke="white" stroke-width="0.1" stroke-miterlimit="10"/>
<path d="M21.0684 8.57197C21.0684 8.57197 20.1452 8.23411 19.9501 8.88411V13.169" stroke="white" stroke-width="0.1" stroke-miterlimit="10"/>
<path d="M14.8878 12.4243H16.9826" stroke="white" stroke-width="0.1" stroke-miterlimit="10"/>
<path d="M14.8878 12.8701H16.9826" stroke="white" stroke-width="0.1" stroke-miterlimit="10"/>
<path d="M12.3682 13.2346V9.53499H14.3448V13.4102H12.628" stroke="white" stroke-width="0.1" stroke-miterlimit="10"/>
<path d="M19.7551 12.9029V9.53499H17.4794V13.4102H19.1135L19.7551 12.9029Z" stroke="white" stroke-width="0.1" stroke-miterlimit="10"/>
<path d="M17.2444 9.5341V13.4093H14.6315V9.5341H17.2444Z" stroke="white" stroke-width="0.1" stroke-miterlimit="10"/>
<path d="M12.4625 13.5401C12.3709 13.5401 12.2966 13.4659 12.2966 13.3743C12.2966 13.2827 12.3709 13.2085 12.4625 13.2085C12.5541 13.2085 12.6283 13.2827 12.6283 13.3743C12.6283 13.4659 12.5541 13.5401 12.4625 13.5401Z" stroke="white" stroke-width="0.1" stroke-miterlimit="10"/>
<path d="M6.06061 8.59148V9.2938" stroke="white" stroke-width="0.1" stroke-miterlimit="10"/>
<path d="M8.33608 13.5068H8.06295C8.06295 13.5068 7.88116 13.5068 7.88116 13.3933C7.88116 13.2798 8.1738 13.2275 8.33608 13.2275V13.5068Z" stroke="white" stroke-width="0.1" stroke-miterlimit="10"/>
<path d="M6.08633 9.45607H8.06295" stroke="white" stroke-width="0.1" stroke-miterlimit="10"/>
<path d="M1.12085 9.63163C1.13065 9.63163 1.13859 9.62369 1.13859 9.61389C1.13859 9.6041 1.13065 9.59616 1.12085 9.59616C1.11106 9.59616 1.10312 9.6041 1.10312 9.61389C1.10312 9.62369 1.11106 9.63163 1.12085 9.63163Z" fill="white" stroke="white" stroke-width="0.1" stroke-miterlimit="10"/>
<path d="M1.12085 9.98977C1.13065 9.98977 1.13859 9.98183 1.13859 9.97204C1.13859 9.96224 1.13065 9.9543 1.12085 9.9543C1.11106 9.9543 1.10312 9.96224 1.10312 9.97204C1.10312 9.98183 1.11106 9.98977 1.12085 9.98977Z" fill="white" stroke="white" stroke-width="0.1" stroke-miterlimit="10"/>
<path d="M1.12085 12.488C1.13065 12.488 1.13859 12.4801 1.13859 12.4703C1.13859 12.4605 1.13065 12.4525 1.12085 12.4525C1.11106 12.4525 1.10312 12.4605 1.10312 12.4703C1.10312 12.4801 1.11106 12.488 1.12085 12.488Z" fill="white" stroke="white" stroke-width="0.1" stroke-miterlimit="10"/>
<path d="M1.12085 12.1299C1.13065 12.1299 1.13859 12.1219 1.13859 12.1121C1.13859 12.1023 1.13065 12.0944 1.12085 12.0944C1.11106 12.0944 1.10312 12.1023 1.10312 12.1121C1.10312 12.1219 1.11106 12.1299 1.12085 12.1299Z" fill="white" stroke="white" stroke-width="0.1" stroke-miterlimit="10"/>
<path d="M1.12085 11.7761C1.13065 11.7761 1.13859 11.7682 1.13859 11.7584C1.13859 11.7486 1.13065 11.7407 1.12085 11.7407C1.11106 11.7407 1.10312 11.7486 1.10312 11.7584C1.10312 11.7682 1.11106 11.7761 1.12085 11.7761Z" fill="white" stroke="white" stroke-width="0.1" stroke-miterlimit="10"/>
<path d="M1.12085 11.418C1.13065 11.418 1.13859 11.41 1.13859 11.4002C1.13859 11.3904 1.13065 11.3825 1.12085 11.3825C1.11106 11.3825 1.10312 11.3904 1.10312 11.4002C1.10312 11.41 1.11106 11.418 1.12085 11.418Z" fill="white" stroke="white" stroke-width="0.1" stroke-miterlimit="10"/>
<path d="M1.12085 11.0598C1.13065 11.0598 1.13859 11.0519 1.13859 11.0421C1.13859 11.0323 1.13065 11.0244 1.12085 11.0244C1.11106 11.0244 1.10312 11.0323 1.10312 11.0421C1.10312 11.0519 1.11106 11.0598 1.12085 11.0598Z" fill="white" stroke="white" stroke-width="0.1" stroke-miterlimit="10"/>
<path d="M1.12085 10.7061C1.13065 10.7061 1.13859 10.6982 1.13859 10.6884C1.13859 10.6786 1.13065 10.6706 1.12085 10.6706C1.11106 10.6706 1.10312 10.6786 1.10312 10.6884C1.10312 10.6982 1.11106 10.7061 1.12085 10.7061Z" fill="white" stroke="white" stroke-width="0.1" stroke-miterlimit="10"/>
<path d="M1.12085 10.3479C1.13065 10.3479 1.13859 10.34 1.13859 10.3302C1.13859 10.3204 1.13065 10.3125 1.12085 10.3125C1.11106 10.3125 1.10312 10.3204 1.10312 10.3302C1.10312 10.34 1.11106 10.3479 1.12085 10.3479Z" fill="white" stroke="white" stroke-width="0.1" stroke-miterlimit="10"/>
<path d="M1.12085 12.8462C1.13065 12.8462 1.13859 12.8382 1.13859 12.8284C1.13859 12.8187 1.13065 12.8107 1.12085 12.8107C1.11106 12.8107 1.10312 12.8187 1.10312 12.8284C1.10312 12.8382 1.11106 12.8462 1.12085 12.8462Z" fill="white" stroke="white" stroke-width="0.1" stroke-miterlimit="10"/>
<path d="M3.26905 9.63163C3.27884 9.63163 3.28678 9.62369 3.28678 9.61389C3.28678 9.6041 3.27884 9.59616 3.26905 9.59616C3.25925 9.59616 3.25131 9.6041 3.25131 9.61389C3.25131 9.62369 3.25925 9.63163 3.26905 9.63163Z" fill="white" stroke="white" stroke-width="0.1" stroke-miterlimit="10"/>
<path d="M3.26905 9.94833C3.27884 9.94833 3.28678 9.94039 3.28678 9.93059C3.28678 9.9208 3.27884 9.91286 3.26905 9.91286C3.25925 9.91286 3.25131 9.9208 3.25131 9.93059C3.25131 9.94039 3.25925 9.94833 3.26905 9.94833Z" fill="white" stroke="white" stroke-width="0.1" stroke-miterlimit="10"/>
<path d="M3.26905 13.7089C3.27884 13.7089 3.28678 13.7009 3.28678 13.6911C3.28678 13.6813 3.27884 13.6734 3.26905 13.6734C3.25925 13.6734 3.25131 13.6813 3.25131 13.6911C3.25131 13.7009 3.25925 13.7089 3.26905 13.7089Z" fill="white" stroke="white" stroke-width="0.1" stroke-miterlimit="10"/>
<path d="M3.26905 13.3966C3.27884 13.3966 3.28678 13.3887 3.28678 13.3789C3.28678 13.3691 3.27884 13.3611 3.26905 13.3611C3.25925 13.3611 3.25131 13.3691 3.25131 13.3789C3.25131 13.3887 3.25925 13.3966 3.26905 13.3966Z" fill="white" stroke="white" stroke-width="0.1" stroke-miterlimit="10"/>
<path d="M3.26905 13.0799C3.27884 13.0799 3.28678 13.072 3.28678 13.0622C3.28678 13.0524 3.27884 13.0444 3.26905 13.0444C3.25925 13.0444 3.25131 13.0524 3.25131 13.0622C3.25131 13.072 3.25925 13.0799 3.26905 13.0799Z" fill="white" stroke="white" stroke-width="0.1" stroke-miterlimit="10"/>
<path d="M3.26905 12.7676C3.27884 12.7676 3.28678 12.7597 3.28678 12.7499C3.28678 12.7401 3.27884 12.7322 3.26905 12.7322C3.25925 12.7322 3.25131 12.7401 3.25131 12.7499C3.25131 12.7597 3.25925 12.7676 3.26905 12.7676Z" fill="white" stroke="white" stroke-width="0.1" stroke-miterlimit="10"/>
<path d="M3.26905 12.4554C3.27884 12.4554 3.28678 12.4474 3.28678 12.4376C3.28678 12.4278 3.27884 12.4199 3.26905 12.4199C3.25925 12.4199 3.25131 12.4278 3.25131 12.4376C3.25131 12.4474 3.25925 12.4554 3.26905 12.4554Z" fill="white" stroke="white" stroke-width="0.1" stroke-miterlimit="10"/>
<path d="M3.26905 12.1431C3.27884 12.1431 3.28678 12.1351 3.28678 12.1253C3.28678 12.1155 3.27884 12.1076 3.26905 12.1076C3.25925 12.1076 3.25131 12.1155 3.25131 12.1253C3.25131 12.1351 3.25925 12.1431 3.26905 12.1431Z" fill="white" stroke="white" stroke-width="0.1" stroke-miterlimit="10"/>
<path d="M3.26905 11.8264C3.27884 11.8264 3.28678 11.8184 3.28678 11.8086C3.28678 11.7988 3.27884 11.7909 3.26905 11.7909C3.25925 11.7909 3.25131 11.7988 3.25131 11.8086C3.25131 11.8184 3.25925 11.8264 3.26905 11.8264Z" fill="white" stroke="white" stroke-width="0.1" stroke-miterlimit="10"/>
<path d="M3.26905 11.5141C3.27884 11.5141 3.28678 11.5062 3.28678 11.4964C3.28678 11.4866 3.27884 11.4786 3.26905 11.4786C3.25925 11.4786 3.25131 11.4866 3.25131 11.4964C3.25131 11.5062 3.25925 11.5141 3.26905 11.5141Z" fill="white" stroke="white" stroke-width="0.1" stroke-miterlimit="10"/>
<path d="M3.26905 11.2019C3.27884 11.2019 3.28678 11.1939 3.28678 11.1841C3.28678 11.1743 3.27884 11.1664 3.26905 11.1664C3.25925 11.1664 3.25131 11.1743 3.25131 11.1841C3.25131 11.1939 3.25925 11.2019 3.26905 11.2019Z" fill="white" stroke="white" stroke-width="0.1" stroke-miterlimit="10"/>
<path d="M3.26905 10.8852C3.27884 10.8852 3.28678 10.8772 3.28678 10.8674C3.28678 10.8576 3.27884 10.8497 3.26905 10.8497C3.25925 10.8497 3.25131 10.8576 3.25131 10.8674C3.25131 10.8772 3.25925 10.8852 3.26905 10.8852Z" fill="white" stroke="white" stroke-width="0.1" stroke-miterlimit="10"/>
<path d="M3.26905 10.5729C3.27884 10.5729 3.28678 10.5649 3.28678 10.5552C3.28678 10.5454 3.27884 10.5374 3.26905 10.5374C3.25925 10.5374 3.25131 10.5454 3.25131 10.5552C3.25131 10.5649 3.25925 10.5729 3.26905 10.5729Z" fill="white" stroke="white" stroke-width="0.1" stroke-miterlimit="10"/>
<path d="M3.26905 10.2606C3.27884 10.2606 3.28678 10.2527 3.28678 10.2429C3.28678 10.2331 3.27884 10.2251 3.26905 10.2251C3.25925 10.2251 3.25131 10.2331 3.25131 10.2429C3.25131 10.2527 3.25925 10.2606 3.26905 10.2606Z" fill="white" stroke="white" stroke-width="0.1" stroke-miterlimit="10"/>
<path d="M3.26905 14.0211C3.27884 14.0211 3.28678 14.0132 3.28678 14.0034C3.28678 13.9936 3.27884 13.9857 3.26905 13.9857C3.25925 13.9857 3.25131 13.9936 3.25131 14.0034C3.25131 14.0132 3.25925 14.0211 3.26905 14.0211Z" fill="white" stroke="white" stroke-width="0.1" stroke-miterlimit="10"/>
<path d="M5.95154 9.63163C5.96134 9.63163 5.96928 9.62369 5.96928 9.61389C5.96928 9.6041 5.96134 9.59616 5.95154 9.59616C5.94175 9.59616 5.93381 9.6041 5.93381 9.61389C5.93381 9.62369 5.94175 9.63163 5.95154 9.63163Z" fill="white" stroke="white" stroke-width="0.1" stroke-miterlimit="10"/>
<path d="M5.95154 9.94833C5.96134 9.94833 5.96928 9.94039 5.96928 9.93059C5.96928 9.9208 5.96134 9.91286 5.95154 9.91286C5.94175 9.91286 5.93381 9.9208 5.93381 9.93059C5.93381 9.94039 5.94175 9.94833 5.95154 9.94833Z" fill="white" stroke="white" stroke-width="0.1" stroke-miterlimit="10"/>
<path d="M5.95154 13.7089C5.96134 13.7089 5.96928 13.7009 5.96928 13.6911C5.96928 13.6813 5.96134 13.6734 5.95154 13.6734C5.94175 13.6734 5.93381 13.6813 5.93381 13.6911C5.93381 13.7009 5.94175 13.7089 5.95154 13.7089Z" fill="white" stroke="white" stroke-width="0.1" stroke-miterlimit="10"/>
<path d="M5.95154 13.3966C5.96134 13.3966 5.96928 13.3887 5.96928 13.3789C5.96928 13.3691 5.96134 13.3611 5.95154 13.3611C5.94175 13.3611 5.93381 13.3691 5.93381 13.3789C5.93381 13.3887 5.94175 13.3966 5.95154 13.3966Z" fill="white" stroke="white" stroke-width="0.1" stroke-miterlimit="10"/>
<path d="M5.95154 13.0799C5.96134 13.0799 5.96928 13.072 5.96928 13.0622C5.96928 13.0524 5.96134 13.0444 5.95154 13.0444C5.94175 13.0444 5.93381 13.0524 5.93381 13.0622C5.93381 13.072 5.94175 13.0799 5.95154 13.0799Z" fill="white" stroke="white" stroke-width="0.1" stroke-miterlimit="10"/>
<path d="M5.95154 12.7676C5.96134 12.7676 5.96928 12.7597 5.96928 12.7499C5.96928 12.7401 5.96134 12.7322 5.95154 12.7322C5.94175 12.7322 5.93381 12.7401 5.93381 12.7499C5.93381 12.7597 5.94175 12.7676 5.95154 12.7676Z" fill="white" stroke="white" stroke-width="0.1" stroke-miterlimit="10"/>
<path d="M5.95154 12.4554C5.96134 12.4554 5.96928 12.4474 5.96928 12.4376C5.96928 12.4278 5.96134 12.4199 5.95154 12.4199C5.94175 12.4199 5.93381 12.4278 5.93381 12.4376C5.93381 12.4474 5.94175 12.4554 5.95154 12.4554Z" fill="white" stroke="white" stroke-width="0.1" stroke-miterlimit="10"/>
<path d="M5.95154 12.1431C5.96134 12.1431 5.96928 12.1351 5.96928 12.1253C5.96928 12.1155 5.96134 12.1076 5.95154 12.1076C5.94175 12.1076 5.93381 12.1155 5.93381 12.1253C5.93381 12.1351 5.94175 12.1431 5.95154 12.1431Z" fill="white" stroke="white" stroke-width="0.1" stroke-miterlimit="10"/>
<path d="M5.95154 11.8264C5.96134 11.8264 5.96928 11.8184 5.96928 11.8086C5.96928 11.7988 5.96134 11.7909 5.95154 11.7909C5.94175 11.7909 5.93381 11.7988 5.93381 11.8086C5.93381 11.8184 5.94175 11.8264 5.95154 11.8264Z" fill="white" stroke="white" stroke-width="0.1" stroke-miterlimit="10"/>
<path d="M5.95154 11.5141C5.96134 11.5141 5.96928 11.5062 5.96928 11.4964C5.96928 11.4866 5.96134 11.4786 5.95154 11.4786C5.94175 11.4786 5.93381 11.4866 5.93381 11.4964C5.93381 11.5062 5.94175 11.5141 5.95154 11.5141Z" fill="white" stroke="white" stroke-width="0.1" stroke-miterlimit="10"/>
<path d="M5.95154 11.2019C5.96134 11.2019 5.96928 11.1939 5.96928 11.1841C5.96928 11.1743 5.96134 11.1664 5.95154 11.1664C5.94175 11.1664 5.93381 11.1743 5.93381 11.1841C5.93381 11.1939 5.94175 11.2019 5.95154 11.2019Z" fill="white" stroke="white" stroke-width="0.1" stroke-miterlimit="10"/>
<path d="M5.95154 10.8852C5.96134 10.8852 5.96928 10.8772 5.96928 10.8674C5.96928 10.8576 5.96134 10.8497 5.95154 10.8497C5.94175 10.8497 5.93381 10.8576 5.93381 10.8674C5.93381 10.8772 5.94175 10.8852 5.95154 10.8852Z" fill="white" stroke="white" stroke-width="0.1" stroke-miterlimit="10"/>
<path d="M5.95154 10.5729C5.96134 10.5729 5.96928 10.5649 5.96928 10.5552C5.96928 10.5454 5.96134 10.5374 5.95154 10.5374C5.94175 10.5374 5.93381 10.5454 5.93381 10.5552C5.93381 10.5649 5.94175 10.5729 5.95154 10.5729Z" fill="white" stroke="white" stroke-width="0.1" stroke-miterlimit="10"/>
<path d="M5.95154 10.2606C5.96134 10.2606 5.96928 10.2527 5.96928 10.2429C5.96928 10.2331 5.96134 10.2251 5.95154 10.2251C5.94175 10.2251 5.93381 10.2331 5.93381 10.2429C5.93381 10.2527 5.94175 10.2606 5.95154 10.2606Z" fill="white" stroke="white" stroke-width="0.1" stroke-miterlimit="10"/>
<path d="M5.95154 14.0211C5.96134 14.0211 5.96928 14.0132 5.96928 14.0034C5.96928 13.9936 5.96134 13.9857 5.95154 13.9857C5.94175 13.9857 5.93381 13.9936 5.93381 14.0034C5.93381 14.0132 5.94175 14.0211 5.95154 14.0211Z" fill="white" stroke="white" stroke-width="0.1" stroke-miterlimit="10"/>
<path d="M8.27933 9.62721C8.28913 9.62721 8.29707 9.61927 8.29707 9.60947C8.29707 9.59968 8.28913 9.59174 8.27933 9.59174C8.26954 9.59174 8.2616 9.59968 8.2616 9.60947C8.2616 9.61927 8.26954 9.62721 8.27933 9.62721Z" fill="white" stroke="white" stroke-width="0.1" stroke-miterlimit="10"/>
<path d="M10.1194 9.59616C10.1292 9.59616 10.1371 9.58822 10.1371 9.57842C10.1371 9.56863 10.1292 9.56068 10.1194 9.56068C10.1096 9.56068 10.1016 9.56863 10.1016 9.57842C10.1016 9.58822 10.1096 9.59616 10.1194 9.59616Z" fill="white" stroke="white" stroke-width="0.1" stroke-miterlimit="10"/>
<path d="M11.9727 9.56069C11.9825 9.56069 11.9905 9.55275 11.9905 9.54296C11.9905 9.53316 11.9825 9.52522 11.9727 9.52522C11.9629 9.52522 11.955 9.53316 11.955 9.54296C11.955 9.55275 11.9629 9.56069 11.9727 9.56069Z" fill="white" stroke="white" stroke-width="0.1" stroke-miterlimit="10"/>
<path d="M8.27933 9.19267C8.28913 9.19267 8.29707 9.18472 8.29707 9.17493C8.29707 9.16513 8.28913 9.1572 8.27933 9.1572C8.26954 9.1572 8.2616 9.16513 8.2616 9.17493C8.2616 9.18472 8.26954 9.19267 8.27933 9.19267Z" fill="white" stroke="white" stroke-width="0.1" stroke-miterlimit="10"/>
<path d="M10.1194 9.15722C10.1292 9.15722 10.1371 9.14928 10.1371 9.13949C10.1371 9.12969 10.1292 9.12175 10.1194 9.12175C10.1096 9.12175 10.1016 9.12969 10.1016 9.13949C10.1016 9.14928 10.1096 9.15722 10.1194 9.15722Z" fill="white" stroke="white" stroke-width="0.1" stroke-miterlimit="10"/>
<path d="M11.9727 9.12617C11.9825 9.12617 11.9905 9.11823 11.9905 9.10843C11.9905 9.09864 11.9825 9.0907 11.9727 9.0907C11.9629 9.0907 11.955 9.09864 11.955 9.10843C11.955 9.11823 11.9629 9.12617 11.9727 9.12617Z" fill="white" stroke="white" stroke-width="0.1" stroke-miterlimit="10"/>
<path d="M8.27933 8.75373C8.28913 8.75373 8.29707 8.74579 8.29707 8.736C8.29707 8.7262 8.28913 8.71826 8.27933 8.71826C8.26954 8.71826 8.2616 8.7262 8.2616 8.736C8.2616 8.74579 8.26954 8.75373 8.27933 8.75373Z" fill="white" stroke="white" stroke-width="0.1" stroke-miterlimit="10"/>
<path d="M10.1194 8.72268C10.1292 8.72268 10.1371 8.71474 10.1371 8.70494C10.1371 8.69515 10.1292 8.68721 10.1194 8.68721C10.1096 8.68721 10.1016 8.69515 10.1016 8.70494C10.1016 8.71474 10.1096 8.72268 10.1194 8.72268Z" fill="white" stroke="white" stroke-width="0.1" stroke-miterlimit="10"/>
<path d="M11.9727 8.69166C11.9825 8.69166 11.9905 8.68372 11.9905 8.67393C11.9905 8.66413 11.9825 8.65619 11.9727 8.65619C11.9629 8.65619 11.955 8.66413 11.955 8.67393C11.955 8.68372 11.9629 8.69166 11.9727 8.69166Z" fill="white" stroke="white" stroke-width="0.1" stroke-miterlimit="10"/>
<path d="M8.03547 9.43211C8.04526 9.43211 8.0532 9.42417 8.0532 9.41437C8.0532 9.40458 8.04526 9.39664 8.03547 9.39664C8.02567 9.39664 8.01773 9.40458 8.01773 9.41437C8.01773 9.42417 8.02567 9.43211 8.03547 9.43211Z" fill="white" stroke="white" stroke-width="0.1" stroke-miterlimit="10"/>
<path d="M7.84302 9.43211C7.85282 9.43211 7.86076 9.42417 7.86076 9.41437C7.86076 9.40458 7.85282 9.39664 7.84302 9.39664C7.83323 9.39664 7.82529 9.40458 7.82529 9.41437C7.82529 9.42417 7.83323 9.43211 7.84302 9.43211Z" fill="white" stroke="white" stroke-width="0.1" stroke-miterlimit="10"/>
<path d="M7.65058 9.43211C7.66037 9.43211 7.66831 9.42417 7.66831 9.41437C7.66831 9.40458 7.66037 9.39664 7.65058 9.39664C7.64078 9.39664 7.63284 9.40458 7.63284 9.41437C7.63284 9.42417 7.64078 9.43211 7.65058 9.43211Z" fill="white" stroke="white" stroke-width="0.1" stroke-miterlimit="10"/>
<path d="M7.45816 9.43211C7.46796 9.43211 7.4759 9.42417 7.4759 9.41437C7.4759 9.40458 7.46796 9.39664 7.45816 9.39664C7.44837 9.39664 7.44043 9.40458 7.44043 9.41437C7.44043 9.42417 7.44837 9.43211 7.45816 9.43211Z" fill="white" stroke="white" stroke-width="0.1" stroke-miterlimit="10"/>
<path d="M7.26575 9.43211C7.27555 9.43211 7.28349 9.42417 7.28349 9.41437C7.28349 9.40458 7.27555 9.39664 7.26575 9.39664C7.25596 9.39664 7.24802 9.40458 7.24802 9.41437C7.24802 9.42417 7.25596 9.43211 7.26575 9.43211Z" fill="white" stroke="white" stroke-width="0.1" stroke-miterlimit="10"/>
<path d="M8.69343 13.4558C8.70322 13.4558 8.71116 13.4479 8.71116 13.4381C8.71116 13.4283 8.70322 13.4204 8.69343 13.4204C8.68363 13.4204 8.67569 13.4283 8.67569 13.4381C8.67569 13.4479 8.68363 13.4558 8.69343 13.4558Z" fill="white" stroke="white" stroke-width="0.1" stroke-miterlimit="10"/>
<path d="M9.38291 13.4558C9.3927 13.4558 9.40064 13.4479 9.40064 13.4381C9.40064 13.4283 9.3927 13.4204 9.38291 13.4204C9.37311 13.4204 9.36517 13.4283 9.36517 13.4381C9.36517 13.4479 9.37311 13.4558 9.38291 13.4558Z" fill="white" stroke="white" stroke-width="0.1" stroke-miterlimit="10"/>
<path d="M10.0724 13.4558C10.0822 13.4558 10.0901 13.4479 10.0901 13.4381C10.0901 13.4283 10.0822 13.4204 10.0724 13.4204C10.0626 13.4204 10.0546 13.4283 10.0546 13.4381C10.0546 13.4479 10.0626 13.4558 10.0724 13.4558Z" fill="white" stroke="white" stroke-width="0.1" stroke-miterlimit="10"/>
<path d="M10.7574 13.4558C10.7672 13.4558 10.7751 13.4479 10.7751 13.4381C10.7751 13.4283 10.7672 13.4204 10.7574 13.4204C10.7476 13.4204 10.7397 13.4283 10.7397 13.4381C10.7397 13.4479 10.7476 13.4558 10.7574 13.4558Z" fill="white" stroke="white" stroke-width="0.1" stroke-miterlimit="10"/>
<path d="M11.4469 13.4558C11.4567 13.4558 11.4646 13.4479 11.4646 13.4381C11.4646 13.4283 11.4567 13.4204 11.4469 13.4204C11.4371 13.4204 11.4291 13.4283 11.4291 13.4381C11.4291 13.4479 11.4371 13.4558 11.4469 13.4558Z" fill="white" stroke="white" stroke-width="0.1" stroke-miterlimit="10"/>
<path d="M7.07331 9.43211C7.0831 9.43211 7.09104 9.42417 7.09104 9.41437C7.09104 9.40458 7.0831 9.39664 7.07331 9.39664C7.06351 9.39664 7.05557 9.40458 7.05557 9.41437C7.05557 9.42417 7.06351 9.43211 7.07331 9.43211Z" fill="white" stroke="white" stroke-width="0.1" stroke-miterlimit="10"/>
<path d="M6.87644 9.43211C6.88623 9.43211 6.89417 9.42417 6.89417 9.41437C6.89417 9.40458 6.88623 9.39664 6.87644 9.39664C6.86664 9.39664 6.8587 9.40458 6.8587 9.41437C6.8587 9.42417 6.86664 9.43211 6.87644 9.43211Z" fill="white" stroke="white" stroke-width="0.1" stroke-miterlimit="10"/>
<path d="M6.684 9.43211C6.69379 9.43211 6.70173 9.42417 6.70173 9.41437C6.70173 9.40458 6.69379 9.39664 6.684 9.39664C6.6742 9.39664 6.66626 9.40458 6.66626 9.41437C6.66626 9.42417 6.6742 9.43211 6.684 9.43211Z" fill="white" stroke="white" stroke-width="0.1" stroke-miterlimit="10"/>
<path d="M6.49158 9.43211C6.50138 9.43211 6.50932 9.42417 6.50932 9.41437C6.50932 9.40458 6.50138 9.39664 6.49158 9.39664C6.48179 9.39664 6.47385 9.40458 6.47385 9.41437C6.47385 9.42417 6.48179 9.43211 6.49158 9.43211Z" fill="white" stroke="white" stroke-width="0.1" stroke-miterlimit="10"/>
<path d="M6.29917 9.43211C6.30896 9.43211 6.3169 9.42417 6.3169 9.41437C6.3169 9.40458 6.30896 9.39664 6.29917 9.39664C6.28937 9.39664 6.28143 9.40458 6.28143 9.41437C6.28143 9.42417 6.28937 9.43211 6.29917 9.43211Z" fill="white" stroke="white" stroke-width="0.1" stroke-miterlimit="10"/>
<path d="M6.10672 9.43211C6.11652 9.43211 6.12446 9.42417 6.12446 9.41437C6.12446 9.40458 6.11652 9.39664 6.10672 9.39664C6.09693 9.39664 6.08899 9.40458 6.08899 9.41437C6.08899 9.42417 6.09693 9.43211 6.10672 9.43211Z" fill="white" stroke="white" stroke-width="0.1" stroke-miterlimit="10"/>
<path d="M5.82031 8.59148H3.38168V9.43036H5.82031V8.59148Z" stroke="white" stroke-width="0.1" stroke-miterlimit="10"/>
<path d="M8.27933 9.93946C8.28913 9.93946 8.29707 9.93152 8.29707 9.92173C8.29707 9.91193 8.28913 9.90399 8.27933 9.90399C8.26954 9.90399 8.2616 9.91193 8.2616 9.92173C8.2616 9.93152 8.26954 9.93946 8.27933 9.93946Z" fill="white" stroke="white" stroke-width="0.1" stroke-miterlimit="10"/>
<path d="M10.1194 9.90844C10.1292 9.90844 10.1371 9.9005 10.1371 9.89071C10.1371 9.88091 10.1292 9.87297 10.1194 9.87297C10.1096 9.87297 10.1016 9.88091 10.1016 9.89071C10.1016 9.9005 10.1096 9.90844 10.1194 9.90844Z" fill="white" stroke="white" stroke-width="0.1" stroke-miterlimit="10"/>
<path d="M11.9727 9.87739C11.9825 9.87739 11.9905 9.86945 11.9905 9.85966C11.9905 9.84986 11.9825 9.84192 11.9727 9.84192C11.9629 9.84192 11.955 9.84986 11.955 9.85966C11.955 9.86945 11.9629 9.87739 11.9727 9.87739Z" fill="white" stroke="white" stroke-width="0.1" stroke-miterlimit="10"/>
<path d="M8.22611 13.7887C8.2359 13.7887 8.24384 13.7807 8.24384 13.771C8.24384 13.7612 8.2359 13.7532 8.22611 13.7532C8.21631 13.7532 8.20837 13.7612 8.20837 13.771C8.20837 13.7807 8.21631 13.7887 8.22611 13.7887Z" fill="white" stroke="white" stroke-width="0.1" stroke-miterlimit="10"/>
<path d="M8.00443 13.4143C8.01422 13.4143 8.02216 13.4064 8.02216 13.3966C8.02216 13.3868 8.01422 13.3789 8.00443 13.3789C7.99463 13.3789 7.98669 13.3868 7.98669 13.3966C7.98669 13.4064 7.99463 13.4143 8.00443 13.4143Z" fill="white" stroke="white" stroke-width="0.1" stroke-miterlimit="10"/>
<path d="M8.27933 13.0755C8.28913 13.0755 8.29707 13.0675 8.29707 13.0577C8.29707 13.048 8.28913 13.04 8.27933 13.04C8.26954 13.04 8.2616 13.048 8.2616 13.0577C8.2616 13.0675 8.26954 13.0755 8.27933 13.0755Z" fill="white" stroke="white" stroke-width="0.1" stroke-miterlimit="10"/>
<path d="M10.1194 13.0444C10.1292 13.0444 10.1371 13.0365 10.1371 13.0267C10.1371 13.0169 10.1292 13.009 10.1194 13.009C10.1096 13.009 10.1016 13.0169 10.1016 13.0267C10.1016 13.0365 10.1096 13.0444 10.1194 13.0444Z" fill="white" stroke="white" stroke-width="0.1" stroke-miterlimit="10"/>
<path d="M11.9727 13.009C11.9825 13.009 11.9905 13.001 11.9905 12.9912C11.9905 12.9814 11.9825 12.9735 11.9727 12.9735C11.9629 12.9735 11.955 12.9814 11.955 12.9912C11.955 13.001 11.9629 13.009 11.9727 13.009Z" fill="white" stroke="white" stroke-width="0.1" stroke-miterlimit="10"/>
<path d="M8.27933 12.7632C8.28913 12.7632 8.29707 12.7553 8.29707 12.7455C8.29707 12.7357 8.28913 12.7277 8.27933 12.7277C8.26954 12.7277 8.2616 12.7357 8.2616 12.7455C8.2616 12.7553 8.26954 12.7632 8.27933 12.7632Z" fill="white" stroke="white" stroke-width="0.1" stroke-miterlimit="10"/>
<path d="M10.1194 12.7277C10.1292 12.7277 10.1371 12.7198 10.1371 12.71C10.1371 12.7002 10.1292 12.6923 10.1194 12.6923C10.1096 12.6923 10.1016 12.7002 10.1016 12.71C10.1016 12.7198 10.1096 12.7277 10.1194 12.7277Z" fill="white" stroke="white" stroke-width="0.1" stroke-miterlimit="10"/>
<path d="M11.9727 12.6967C11.9825 12.6967 11.9905 12.6888 11.9905 12.679C11.9905 12.6692 11.9825 12.6612 11.9727 12.6612C11.9629 12.6612 11.955 12.6692 11.955 12.679C11.955 12.6888 11.9629 12.6967 11.9727 12.6967Z" fill="white" stroke="white" stroke-width="0.1" stroke-miterlimit="10"/>
<path d="M8.27933 12.4465C8.28913 12.4465 8.29707 12.4385 8.29707 12.4287C8.29707 12.419 8.28913 12.411 8.27933 12.411C8.26954 12.411 8.2616 12.419 8.2616 12.4287C8.2616 12.4385 8.26954 12.4465 8.27933 12.4465Z" fill="white" stroke="white" stroke-width="0.1" stroke-miterlimit="10"/>
<path d="M10.1194 12.4155C10.1292 12.4155 10.1371 12.4075 10.1371 12.3977C10.1371 12.3879 10.1292 12.38 10.1194 12.38C10.1096 12.38 10.1016 12.3879 10.1016 12.3977C10.1016 12.4075 10.1096 12.4155 10.1194 12.4155Z" fill="white" stroke="white" stroke-width="0.1" stroke-miterlimit="10"/>
<path d="M11.9727 12.3844C11.9825 12.3844 11.9905 12.3765 11.9905 12.3667C11.9905 12.3569 11.9825 12.3489 11.9727 12.3489C11.9629 12.3489 11.955 12.3569 11.955 12.3667C11.955 12.3765 11.9629 12.3844 11.9727 12.3844Z" fill="white" stroke="white" stroke-width="0.1" stroke-miterlimit="10"/>
<path d="M8.27933 12.1342C8.28913 12.1342 8.29707 12.1263 8.29707 12.1165C8.29707 12.1067 8.28913 12.0988 8.27933 12.0988C8.26954 12.0988 8.2616 12.1067 8.2616 12.1165C8.2616 12.1263 8.26954 12.1342 8.27933 12.1342Z" fill="white" stroke="white" stroke-width="0.1" stroke-miterlimit="10"/>
<path d="M10.1194 12.1032C10.1292 12.1032 10.1371 12.0953 10.1371 12.0855C10.1371 12.0757 10.1292 12.0677 10.1194 12.0677C10.1096 12.0677 10.1016 12.0757 10.1016 12.0855C10.1016 12.0953 10.1096 12.1032 10.1194 12.1032Z" fill="white" stroke="white" stroke-width="0.1" stroke-miterlimit="10"/>
<path d="M11.9727 12.0677C11.9825 12.0677 11.9905 12.0598 11.9905 12.05C11.9905 12.0402 11.9825 12.0322 11.9727 12.0322C11.9629 12.0322 11.955 12.0402 11.955 12.05C11.955 12.0598 11.9629 12.0677 11.9727 12.0677Z" fill="white" stroke="white" stroke-width="0.1" stroke-miterlimit="10"/>
<path d="M8.27933 11.822C8.28913 11.822 8.29707 11.814 8.29707 11.8042C8.29707 11.7944 8.28913 11.7865 8.27933 11.7865C8.26954 11.7865 8.2616 11.7944 8.2616 11.8042C8.2616 11.814 8.26954 11.822 8.27933 11.822Z" fill="white" stroke="white" stroke-width="0.1" stroke-miterlimit="10"/>
<path d="M10.1194 11.7909C10.1292 11.7909 10.1371 11.783 10.1371 11.7732C10.1371 11.7634 10.1292 11.7555 10.1194 11.7555C10.1096 11.7555 10.1016 11.7634 10.1016 11.7732C10.1016 11.783 10.1096 11.7909 10.1194 11.7909Z" fill="white" stroke="white" stroke-width="0.1" stroke-miterlimit="10"/>
<path d="M11.9727 11.7554C11.9825 11.7554 11.9905 11.7475 11.9905 11.7377C11.9905 11.7279 11.9825 11.72 11.9727 11.72C11.9629 11.72 11.955 11.7279 11.955 11.7377C11.955 11.7475 11.9629 11.7554 11.9727 11.7554Z" fill="white" stroke="white" stroke-width="0.1" stroke-miterlimit="10"/>
<path d="M8.27933 11.5097C8.28913 11.5097 8.29707 11.5018 8.29707 11.492C8.29707 11.4822 8.28913 11.4742 8.27933 11.4742C8.26954 11.4742 8.2616 11.4822 8.2616 11.492C8.2616 11.5018 8.26954 11.5097 8.27933 11.5097Z" fill="white" stroke="white" stroke-width="0.1" stroke-miterlimit="10"/>
<path d="M10.1194 11.4742C10.1292 11.4742 10.1371 11.4663 10.1371 11.4565C10.1371 11.4467 10.1292 11.4387 10.1194 11.4387C10.1096 11.4387 10.1016 11.4467 10.1016 11.4565C10.1016 11.4663 10.1096 11.4742 10.1194 11.4742Z" fill="white" stroke="white" stroke-width="0.1" stroke-miterlimit="10"/>
<path d="M11.9727 11.4432C11.9825 11.4432 11.9905 11.4352 11.9905 11.4254C11.9905 11.4157 11.9825 11.4077 11.9727 11.4077C11.9629 11.4077 11.955 11.4157 11.955 11.4254C11.955 11.4352 11.9629 11.4432 11.9727 11.4432Z" fill="white" stroke="white" stroke-width="0.1" stroke-miterlimit="10"/>
<path d="M8.27933 11.193C8.28913 11.193 8.29707 11.185 8.29707 11.1753C8.29707 11.1655 8.28913 11.1575 8.27933 11.1575C8.26954 11.1575 8.2616 11.1655 8.2616 11.1753C8.2616 11.185 8.26954 11.193 8.27933 11.193Z" fill="white" stroke="white" stroke-width="0.1" stroke-miterlimit="10"/>
<path d="M10.1194 11.1619C10.1292 11.1619 10.1371 11.154 10.1371 11.1442C10.1371 11.1344 10.1292 11.1265 10.1194 11.1265C10.1096 11.1265 10.1016 11.1344 10.1016 11.1442C10.1016 11.154 10.1096 11.1619 10.1194 11.1619Z" fill="white" stroke="white" stroke-width="0.1" stroke-miterlimit="10"/>
<path d="M11.9727 11.1309C11.9825 11.1309 11.9905 11.123 11.9905 11.1132C11.9905 11.1034 11.9825 11.0954 11.9727 11.0954C11.9629 11.0954 11.955 11.1034 11.955 11.1132C11.955 11.123 11.9629 11.1309 11.9727 11.1309Z" fill="white" stroke="white" stroke-width="0.1" stroke-miterlimit="10"/>
<path d="M8.27933 10.8807C8.28913 10.8807 8.29707 10.8728 8.29707 10.863C8.29707 10.8532 8.28913 10.8452 8.27933 10.8452C8.26954 10.8452 8.2616 10.8532 8.2616 10.863C8.2616 10.8728 8.26954 10.8807 8.27933 10.8807Z" fill="white" stroke="white" stroke-width="0.1" stroke-miterlimit="10"/>
<path d="M10.1194 10.8497C10.1292 10.8497 10.1371 10.8417 10.1371 10.8319C10.1371 10.8222 10.1292 10.8142 10.1194 10.8142C10.1096 10.8142 10.1016 10.8222 10.1016 10.8319C10.1016 10.8417 10.1096 10.8497 10.1194 10.8497Z" fill="white" stroke="white" stroke-width="0.1" stroke-miterlimit="10"/>
<path d="M11.9727 10.8142C11.9825 10.8142 11.9905 10.8063 11.9905 10.7965C11.9905 10.7867 11.9825 10.7787 11.9727 10.7787C11.9629 10.7787 11.955 10.7867 11.955 10.7965C11.955 10.8063 11.9629 10.8142 11.9727 10.8142Z" fill="white" stroke="white" stroke-width="0.1" stroke-miterlimit="10"/>
<path d="M8.27933 10.5684C8.28913 10.5684 8.29707 10.5605 8.29707 10.5507C8.29707 10.5409 8.28913 10.533 8.27933 10.533C8.26954 10.533 8.2616 10.5409 8.2616 10.5507C8.2616 10.5605 8.26954 10.5684 8.27933 10.5684Z" fill="white" stroke="white" stroke-width="0.1" stroke-miterlimit="10"/>
<path d="M10.1194 10.533C10.1292 10.533 10.1371 10.525 10.1371 10.5152C10.1371 10.5054 10.1292 10.4975 10.1194 10.4975C10.1096 10.4975 10.1016 10.5054 10.1016 10.5152C10.1016 10.525 10.1096 10.533 10.1194 10.533Z" fill="white" stroke="white" stroke-width="0.1" stroke-miterlimit="10"/>
<path d="M11.9727 10.5019C11.9825 10.5019 11.9905 10.494 11.9905 10.4842C11.9905 10.4744 11.9825 10.4664 11.9727 10.4664C11.9629 10.4664 11.955 10.4744 11.955 10.4842C11.955 10.494 11.9629 10.5019 11.9727 10.5019Z" fill="white" stroke="white" stroke-width="0.1" stroke-miterlimit="10"/>
<path d="M8.27933 10.2517C8.28913 10.2517 8.29707 10.2438 8.29707 10.234C8.29707 10.2242 8.28913 10.2163 8.27933 10.2163C8.26954 10.2163 8.2616 10.2242 8.2616 10.234C8.2616 10.2438 8.26954 10.2517 8.27933 10.2517Z" fill="white" stroke="white" stroke-width="0.1" stroke-miterlimit="10"/>
<path d="M10.1194 10.2207C10.1292 10.2207 10.1371 10.2128 10.1371 10.203C10.1371 10.1932 10.1292 10.1852 10.1194 10.1852C10.1096 10.1852 10.1016 10.1932 10.1016 10.203C10.1016 10.2128 10.1096 10.2207 10.1194 10.2207Z" fill="white" stroke="white" stroke-width="0.1" stroke-miterlimit="10"/>
<path d="M11.9727 10.1897C11.9825 10.1897 11.9905 10.1817 11.9905 10.1719C11.9905 10.1621 11.9825 10.1542 11.9727 10.1542C11.9629 10.1542 11.955 10.1621 11.955 10.1719C11.955 10.1817 11.9629 10.1897 11.9727 10.1897Z" fill="white" stroke="white" stroke-width="0.1" stroke-miterlimit="10"/>
<path d="M8.22611 14.0167C8.2359 14.0167 8.24384 14.0088 8.24384 13.999C8.24384 13.9892 8.2359 13.9812 8.22611 13.9812C8.21631 13.9812 8.20837 13.9892 8.20837 13.999C8.20837 14.0088 8.21631 14.0167 8.22611 14.0167Z" fill="white" stroke="white" stroke-width="0.1" stroke-miterlimit="10"/>
<path d="M1.22238 8.59769V9.44987H3.14047V8.59769H1.22238Z" stroke="white" stroke-width="0.1" stroke-miterlimit="10"/>
<path d="M1.38202 11.9686H2.96225" stroke="white" stroke-width="0.1" stroke-miterlimit="10"/>
<path d="M5.56998 11.9981H3.62558" stroke="white" stroke-width="0.1" stroke-miterlimit="10"/>
<path d="M7.91736 11.9981H6.2591" stroke="white" stroke-width="0.1" stroke-miterlimit="10"/>
<path d="M9.91882 12.0385H8.50458" stroke="white" stroke-width="0.1" stroke-miterlimit="10"/>
<path d="M9.91882 11.6133H8.50458" stroke="white" stroke-width="0.1" stroke-miterlimit="10"/>
<path d="M9.91882 11.1872H8.50458" stroke="white" stroke-width="0.1" stroke-miterlimit="10"/>
<path d="M9.91882 10.7621H8.50458" stroke="white" stroke-width="0.1" stroke-miterlimit="10"/>
<path d="M9.91882 10.336H8.50458" stroke="white" stroke-width="0.1" stroke-miterlimit="10"/>
<path d="M9.91882 9.48485H8.50458" stroke="white" stroke-width="0.1" stroke-miterlimit="10"/>
<path d="M9.91882 9.91087H8.50458" stroke="white" stroke-width="0.1" stroke-miterlimit="10"/>
<path d="M9.91882 9.05969H8.50458" stroke="white" stroke-width="0.1" stroke-miterlimit="10"/>
<path d="M9.91882 12.4636H8.50458" stroke="white" stroke-width="0.1" stroke-miterlimit="10"/>
<path d="M9.91882 12.8896H8.50458" stroke="white" stroke-width="0.1" stroke-miterlimit="10"/>
<path d="M11.7593 12.0385H10.3451" stroke="white" stroke-width="0.1" stroke-miterlimit="10"/>
<path d="M11.7593 11.6133H10.3451" stroke="white" stroke-width="0.1" stroke-miterlimit="10"/>
<path d="M11.7593 11.1872H10.3451" stroke="white" stroke-width="0.1" stroke-miterlimit="10"/>
<path d="M11.7593 10.7621H10.3451" stroke="white" stroke-width="0.1" stroke-miterlimit="10"/>
<path d="M11.7593 10.336H10.3451" stroke="white" stroke-width="0.1" stroke-miterlimit="10"/>
<path d="M11.7593 9.48485H10.3451" stroke="white" stroke-width="0.1" stroke-miterlimit="10"/>
<path d="M11.7593 9.91087H10.3451" stroke="white" stroke-width="0.1" stroke-miterlimit="10"/>
<path d="M11.7593 9.05969H10.3451" stroke="white" stroke-width="0.1" stroke-miterlimit="10"/>
<path d="M11.7593 12.4636H10.3451" stroke="white" stroke-width="0.1" stroke-miterlimit="10"/>
<path d="M11.7593 12.8896H10.3451" stroke="white" stroke-width="0.1" stroke-miterlimit="10"/>
<path d="M1.38202 11.5282H2.96225" stroke="white" stroke-width="0.1" stroke-miterlimit="10"/>
<path d="M5.56998 11.5523H3.62558" stroke="white" stroke-width="0.1" stroke-miterlimit="10"/>
<path d="M7.91736 11.5523H6.2591" stroke="white" stroke-width="0.1" stroke-miterlimit="10"/>
<path d="M1.38202 11.0886H2.96225" stroke="white" stroke-width="0.1" stroke-miterlimit="10"/>
<path d="M5.56998 11.1056H3.62558" stroke="white" stroke-width="0.1" stroke-miterlimit="10"/>
<path d="M7.91736 11.1056H6.2591" stroke="white" stroke-width="0.1" stroke-miterlimit="10"/>
<path d="M1.38202 10.6482H2.96225" stroke="white" stroke-width="0.1" stroke-miterlimit="10"/>
<path d="M5.56998 10.6598H3.62558" stroke="white" stroke-width="0.1" stroke-miterlimit="10"/>
<path d="M7.91736 10.6598H6.2591" stroke="white" stroke-width="0.1" stroke-miterlimit="10"/>
<path d="M1.38202 10.2086H2.96225" stroke="white" stroke-width="0.1" stroke-miterlimit="10"/>
<path d="M5.56998 10.214H3.62558" stroke="white" stroke-width="0.1" stroke-miterlimit="10"/>
<path d="M7.91736 10.214H6.2591" stroke="white" stroke-width="0.1" stroke-miterlimit="10"/>
<path d="M1.38202 9.76822H2.96225" stroke="white" stroke-width="0.1" stroke-miterlimit="10"/>
<path d="M5.56998 9.76822H3.62558" stroke="white" stroke-width="0.1" stroke-miterlimit="10"/>
<path d="M7.91736 9.76822H6.2591" stroke="white" stroke-width="0.1" stroke-miterlimit="10"/>
<path d="M1.38202 12.4081H2.96225" stroke="white" stroke-width="0.1" stroke-miterlimit="10"/>
<path d="M5.56998 12.4438H3.62558" stroke="white" stroke-width="0.1" stroke-miterlimit="10"/>
<path d="M7.91736 12.4438H6.2591" stroke="white" stroke-width="0.1" stroke-miterlimit="10"/>
<path d="M5.56998 12.8896H3.62558" stroke="white" stroke-width="0.1" stroke-miterlimit="10"/>
<path d="M7.91736 12.8896H6.2591" stroke="white" stroke-width="0.1" stroke-miterlimit="10"/>
<path d="M2.37961 12.6884H2.96133V13.2736H2.37961V12.6884ZM2.37961 12.6884V13.3384H2.96133" stroke="white" stroke-width="0.1" stroke-miterlimit="10"/>
<path d="M21.8026 8.24031L12.1199 8.35737V8.49393H7.85455V8.4221L0.974976 8.49393" stroke="white" stroke-width="0.1" stroke-miterlimit="10"/>
<path d="M8.06295 13.2541V9.5545H6.08633V13.4297H7.80313" stroke="white" stroke-width="0.1" stroke-miterlimit="10"/>
<path d="M1.20996 12.9225V9.5545H3.14756V13.4297H1.75621L1.20996 12.9225Z" stroke="white" stroke-width="0.1" stroke-miterlimit="10"/>
<path d="M3.38168 9.55362V13.4288H5.80701V9.55362H3.38168" stroke="white" stroke-width="0.1" stroke-miterlimit="10"/>
<path d="M0.962572 8.49393L1.04061 8.57817V14.0726H1.22949H3.14758H3.38169H5.82652H6.08634H6.07385H8.09569H8.10818H8.31657H12.0942H12.3221H14.4096H14.6437H17.2703H17.4787H17.5008H19.7505H19.7284H19.9954V13.5268H21.2244V11.2438H21.6341V9.93759L21.2244 9.69019V8.4221H21.8292V8.28554H21.9525V8.12326L20.6906 8C14.767 8.15696 8.78213 8.26248 2.6971 8.28554C2.58891 8.28554 2.48073 8.28909 2.37343 8.29441C1.95487 8.31569 0.871236 8.37067 0.871236 8.37067C0.871236 8.37067 0.708956 8.40969 0.728465 8.49393H0.962572Z" fill="white" stroke="white" stroke-width="0.1" stroke-miterlimit="10"/>
<path d="M7.96868 13.5592C8.06027 13.5592 8.13451 13.4849 8.13451 13.3934C8.13451 13.3018 8.06027 13.2275 7.96868 13.2275C7.8771 13.2275 7.80286 13.3018 7.80286 13.3934C7.80286 13.4849 7.8771 13.5592 7.96868 13.5592Z" stroke="white" stroke-width="0.1" stroke-miterlimit="10"/>
<path d="M0.513855 13.4749H1.0406V13.9236H0.513855" fill="white"/>
<path d="M0.513855 13.4749H1.0406V13.9236H0.513855" stroke="white" stroke-width="0.1" stroke-miterlimit="10"/>
<path d="M0.276023 14.1256C0.428467 14.1256 0.552047 13.9392 0.552047 13.7092C0.552047 13.4792 0.428467 13.2927 0.276023 13.2927C0.12358 13.2927 0 13.4792 0 13.7092C0 13.9392 0.12358 14.1256 0.276023 14.1256Z" fill="white" stroke="white" stroke-width="0.1" stroke-miterlimit="10"/>
</g>
<defs>
<clipPath id="clip0">
<rect width="23" height="23" fill="white"/>
</clipPath>
</defs>
</svg>
